%
M48
M72
T01C0.0130
T02C0.0354
%
T01
X2471Y1122
X4451Y1702
X5951Y1702
X7451Y1702
X8951Y1702
X8951Y3202
X7451Y3202
X5951Y3202
X4451Y3202
X4451Y4702
X5951Y4702
X7451Y4702
X8951Y4702
X9226Y5977
X8501Y6002
X8151Y6352
X7851Y6352
X7651Y6002
X5851Y6252
X9976Y5977
T02
X11101Y5702
X11101Y6702
X11101Y7702
X11101Y4702
X11101Y3702
X11101Y2702
X11101Y1702
X11101Y702
M30
