G75*
G70*
%OFA0B0*%
%FSLAX24Y24*%
%IPPOS*%
%LPD*%
%AMOC8*
5,1,8,0,0,1.08239X$1,22.5*
%
%ADD10C,0.0201*%
%ADD11C,0.0202*%
%ADD12C,0.0198*%
%ADD13C,0.0197*%
%ADD14C,0.0197*%
%ADD15C,0.0039*%
%ADD16C,0.0202*%
%ADD17C,0.0700*%
%ADD18C,0.0100*%
%ADD19C,0.0160*%
%ADD20C,0.0290*%
%ADD21C,0.0200*%
D10*
X003982Y001510D02*
X003982Y001586D01*
X003982Y001510D02*
X003710Y001510D01*
X003710Y001586D01*
X003982Y001586D01*
X003982Y001982D02*
X003982Y002058D01*
X003982Y001982D02*
X003710Y001982D01*
X003710Y002058D01*
X003982Y002058D01*
X003982Y002455D02*
X003982Y002531D01*
X003982Y002455D02*
X003710Y002455D01*
X003710Y002531D01*
X003982Y002531D01*
X003982Y002927D02*
X003982Y003003D01*
X003982Y002927D02*
X003710Y002927D01*
X003710Y003003D01*
X003982Y003003D01*
X003982Y003400D02*
X003982Y003476D01*
X003982Y003400D02*
X003710Y003400D01*
X003710Y003476D01*
X003982Y003476D01*
X003982Y003872D02*
X003982Y003948D01*
X003982Y003872D02*
X003710Y003872D01*
X003710Y003948D01*
X003982Y003948D01*
X003982Y004345D02*
X003982Y004421D01*
X003982Y004345D02*
X003710Y004345D01*
X003710Y004421D01*
X003982Y004421D01*
X003982Y004817D02*
X003982Y004893D01*
X003982Y004817D02*
X003710Y004817D01*
X003710Y004893D01*
X003982Y004893D01*
X004537Y005369D02*
X004613Y005369D01*
X004537Y005369D02*
X004537Y005641D01*
X004613Y005641D01*
X004613Y005369D01*
X004613Y005569D02*
X004537Y005569D01*
X005009Y005369D02*
X005085Y005369D01*
X005009Y005369D02*
X005009Y005641D01*
X005085Y005641D01*
X005085Y005369D01*
X005085Y005569D02*
X005009Y005569D01*
X005482Y005369D02*
X005558Y005369D01*
X005482Y005369D02*
X005482Y005641D01*
X005558Y005641D01*
X005558Y005369D01*
X005558Y005569D02*
X005482Y005569D01*
X005954Y005369D02*
X006030Y005369D01*
X005954Y005369D02*
X005954Y005641D01*
X006030Y005641D01*
X006030Y005369D01*
X006030Y005569D02*
X005954Y005569D01*
X006427Y005369D02*
X006503Y005369D01*
X006427Y005369D02*
X006427Y005641D01*
X006503Y005641D01*
X006503Y005369D01*
X006503Y005569D02*
X006427Y005569D01*
X006899Y005369D02*
X006975Y005369D01*
X006899Y005369D02*
X006899Y005641D01*
X006975Y005641D01*
X006975Y005369D01*
X006975Y005569D02*
X006899Y005569D01*
X007371Y005369D02*
X007447Y005369D01*
X007371Y005369D02*
X007371Y005641D01*
X007447Y005641D01*
X007447Y005369D01*
X007447Y005569D02*
X007371Y005569D01*
X007844Y005369D02*
X007920Y005369D01*
X007844Y005369D02*
X007844Y005641D01*
X007920Y005641D01*
X007920Y005369D01*
X007920Y005569D02*
X007844Y005569D01*
X008316Y005369D02*
X008392Y005369D01*
X008316Y005369D02*
X008316Y005641D01*
X008392Y005641D01*
X008392Y005369D01*
X008392Y005569D02*
X008316Y005569D01*
X008789Y005369D02*
X008865Y005369D01*
X008789Y005369D02*
X008789Y005641D01*
X008865Y005641D01*
X008865Y005369D01*
X008865Y005569D02*
X008789Y005569D01*
X009419Y004893D02*
X009419Y004817D01*
X009419Y004893D02*
X009691Y004893D01*
X009691Y004817D01*
X009419Y004817D01*
X009419Y004421D02*
X009419Y004345D01*
X009419Y004421D02*
X009691Y004421D01*
X009691Y004345D01*
X009419Y004345D01*
X009419Y003948D02*
X009419Y003872D01*
X009419Y003948D02*
X009691Y003948D01*
X009691Y003872D01*
X009419Y003872D01*
X009419Y003476D02*
X009419Y003400D01*
X009419Y003476D02*
X009691Y003476D01*
X009691Y003400D01*
X009419Y003400D01*
X009419Y003003D02*
X009419Y002927D01*
X009419Y003003D02*
X009691Y003003D01*
X009691Y002927D01*
X009419Y002927D01*
X009419Y002531D02*
X009419Y002455D01*
X009419Y002531D02*
X009691Y002531D01*
X009691Y002455D01*
X009419Y002455D01*
X009419Y002058D02*
X009419Y001982D01*
X009419Y002058D02*
X009691Y002058D01*
X009691Y001982D01*
X009419Y001982D01*
X009419Y001586D02*
X009419Y001510D01*
X009419Y001586D02*
X009691Y001586D01*
X009691Y001510D01*
X009419Y001510D01*
X008865Y001034D02*
X008789Y001034D01*
X008865Y001034D02*
X008865Y000762D01*
X008789Y000762D01*
X008789Y001034D01*
X008789Y000962D02*
X008865Y000962D01*
X008392Y001034D02*
X008316Y001034D01*
X008392Y001034D02*
X008392Y000762D01*
X008316Y000762D01*
X008316Y001034D01*
X008316Y000962D02*
X008392Y000962D01*
X007920Y001034D02*
X007844Y001034D01*
X007920Y001034D02*
X007920Y000762D01*
X007844Y000762D01*
X007844Y001034D01*
X007844Y000962D02*
X007920Y000962D01*
X007447Y001034D02*
X007371Y001034D01*
X007447Y001034D02*
X007447Y000762D01*
X007371Y000762D01*
X007371Y001034D01*
X007371Y000962D02*
X007447Y000962D01*
X006975Y001034D02*
X006899Y001034D01*
X006975Y001034D02*
X006975Y000762D01*
X006899Y000762D01*
X006899Y001034D01*
X006899Y000962D02*
X006975Y000962D01*
X006503Y001034D02*
X006427Y001034D01*
X006503Y001034D02*
X006503Y000762D01*
X006427Y000762D01*
X006427Y001034D01*
X006427Y000962D02*
X006503Y000962D01*
X006030Y001034D02*
X005954Y001034D01*
X006030Y001034D02*
X006030Y000762D01*
X005954Y000762D01*
X005954Y001034D01*
X005954Y000962D02*
X006030Y000962D01*
X005558Y001034D02*
X005482Y001034D01*
X005558Y001034D02*
X005558Y000762D01*
X005482Y000762D01*
X005482Y001034D01*
X005482Y000962D02*
X005558Y000962D01*
X005085Y001034D02*
X005009Y001034D01*
X005085Y001034D02*
X005085Y000762D01*
X005009Y000762D01*
X005009Y001034D01*
X005009Y000962D02*
X005085Y000962D01*
X004613Y001034D02*
X004537Y001034D01*
X004613Y001034D02*
X004613Y000762D01*
X004537Y000762D01*
X004537Y001034D01*
X004537Y000962D02*
X004613Y000962D01*
X006223Y006225D02*
X006299Y006225D01*
X006223Y006225D02*
X006223Y006379D01*
X006299Y006379D01*
X006299Y006225D01*
X006703Y006225D02*
X006779Y006225D01*
X006703Y006225D02*
X006703Y006379D01*
X006779Y006379D01*
X006779Y006225D01*
D11*
X006974Y004419D02*
X006974Y003677D01*
X006428Y003677D01*
X006428Y004419D01*
X006974Y004419D01*
X006974Y003878D02*
X006428Y003878D01*
X006428Y004079D02*
X006974Y004079D01*
X006974Y004280D02*
X006428Y004280D01*
X005556Y004419D02*
X005556Y003677D01*
X005010Y003677D01*
X005010Y004419D01*
X005556Y004419D01*
X005556Y003878D02*
X005010Y003878D01*
X005010Y004079D02*
X005556Y004079D01*
X005556Y004280D02*
X005010Y004280D01*
X005556Y002726D02*
X005556Y001984D01*
X005010Y001984D01*
X005010Y002726D01*
X005556Y002726D01*
X005556Y002185D02*
X005010Y002185D01*
X005010Y002386D02*
X005556Y002386D01*
X005556Y002587D02*
X005010Y002587D01*
X006974Y002726D02*
X006974Y001984D01*
X006428Y001984D01*
X006428Y002726D01*
X006974Y002726D01*
X006974Y002185D02*
X006428Y002185D01*
X006428Y002386D02*
X006974Y002386D01*
X006974Y002587D02*
X006428Y002587D01*
X008391Y002726D02*
X008391Y001984D01*
X007845Y001984D01*
X007845Y002726D01*
X008391Y002726D01*
X008391Y002185D02*
X007845Y002185D01*
X007845Y002386D02*
X008391Y002386D01*
X008391Y002587D02*
X007845Y002587D01*
X008391Y003677D02*
X008391Y004419D01*
X008391Y003677D02*
X007845Y003677D01*
X007845Y004419D01*
X008391Y004419D01*
X008391Y003878D02*
X007845Y003878D01*
X007845Y004079D02*
X008391Y004079D01*
X008391Y004280D02*
X007845Y004280D01*
D12*
X009692Y005368D02*
X009692Y005642D01*
X009692Y005368D02*
X009418Y005368D01*
X009418Y005642D01*
X009692Y005642D01*
X009692Y005565D02*
X009418Y005565D01*
X003983Y005642D02*
X003983Y005368D01*
X003709Y005368D01*
X003709Y005642D01*
X003983Y005642D01*
X003983Y005565D02*
X003709Y005565D01*
X003983Y001035D02*
X003983Y000761D01*
X003709Y000761D01*
X003709Y001035D01*
X003983Y001035D01*
X003983Y000958D02*
X003709Y000958D01*
X009692Y001035D02*
X009692Y000761D01*
X009418Y000761D01*
X009418Y001035D01*
X009692Y001035D01*
X009692Y000958D02*
X009418Y000958D01*
D13*
X003061Y001255D02*
X003061Y001255D01*
X003141Y001255D01*
X003141Y001255D01*
X003061Y001255D01*
X003061Y001648D02*
X003061Y001648D01*
X003141Y001648D01*
X003141Y001648D01*
X003061Y001648D01*
X002561Y001648D02*
X002561Y001648D01*
X002641Y001648D01*
X002641Y001648D01*
X002561Y001648D01*
X002561Y001255D02*
X002561Y001255D01*
X002641Y001255D01*
X002641Y001255D01*
X002561Y001255D01*
X002401Y001254D02*
X002401Y001096D01*
X002401Y001096D01*
X002401Y001254D01*
X002401Y001254D01*
X002654Y001987D02*
X002654Y001987D01*
X002654Y002067D01*
X002654Y002067D01*
X002654Y001987D01*
X003048Y001987D02*
X003048Y001987D01*
X003048Y002067D01*
X003048Y002067D01*
X003048Y001987D01*
D14*
X002401Y002002D03*
D15*
X002322Y001017D02*
X000413Y001017D01*
X000413Y002907D01*
X001452Y002907D01*
X001452Y003616D01*
X000413Y003616D01*
X000413Y004639D01*
X001452Y004639D01*
X001452Y005348D01*
X000413Y005348D01*
X000413Y006372D01*
X002121Y006372D01*
X002121Y006214D01*
X000570Y006214D01*
X000570Y005506D01*
X001609Y005506D01*
X001609Y004482D01*
X000570Y004482D01*
X000570Y003773D01*
X001609Y003773D01*
X001609Y002750D01*
X000570Y002750D01*
X000570Y002080D01*
X002322Y002080D01*
X002322Y001923D01*
X000570Y001923D01*
X000570Y001332D01*
X002322Y001332D01*
X002322Y001017D01*
X002322Y001036D02*
X000413Y001036D01*
X000413Y001074D02*
X002322Y001074D01*
X002322Y001111D02*
X000413Y001111D01*
X000413Y001149D02*
X002322Y001149D01*
X002322Y001187D02*
X000413Y001187D01*
X000413Y001225D02*
X002322Y001225D01*
X002322Y001263D02*
X000413Y001263D01*
X000413Y001301D02*
X002322Y001301D01*
X002322Y001946D02*
X000413Y001946D01*
X000413Y001984D02*
X002322Y001984D01*
X002322Y002021D02*
X000413Y002021D01*
X000413Y002059D02*
X002322Y002059D01*
X001609Y002780D02*
X000413Y002780D01*
X000413Y002818D02*
X001609Y002818D01*
X001609Y002856D02*
X000413Y002856D01*
X000413Y002893D02*
X001609Y002893D01*
X001609Y002931D02*
X001452Y002931D01*
X001452Y002969D02*
X001609Y002969D01*
X001609Y003007D02*
X001452Y003007D01*
X001452Y003045D02*
X001609Y003045D01*
X001609Y003083D02*
X001452Y003083D01*
X001452Y003121D02*
X001609Y003121D01*
X001609Y003159D02*
X001452Y003159D01*
X001452Y003197D02*
X001609Y003197D01*
X001609Y003235D02*
X001452Y003235D01*
X001452Y003273D02*
X001609Y003273D01*
X001609Y003310D02*
X001452Y003310D01*
X001452Y003348D02*
X001609Y003348D01*
X001609Y003386D02*
X001452Y003386D01*
X001452Y003424D02*
X001609Y003424D01*
X001609Y003462D02*
X001452Y003462D01*
X001452Y003500D02*
X001609Y003500D01*
X001609Y003538D02*
X001452Y003538D01*
X001452Y003576D02*
X001609Y003576D01*
X001609Y003614D02*
X001452Y003614D01*
X001609Y003652D02*
X000413Y003652D01*
X000413Y003690D02*
X001609Y003690D01*
X001609Y003728D02*
X000413Y003728D01*
X000413Y003765D02*
X001609Y003765D01*
X001609Y004486D02*
X000413Y004486D01*
X000413Y004524D02*
X001609Y004524D01*
X001609Y004562D02*
X000413Y004562D01*
X000413Y004600D02*
X001609Y004600D01*
X001609Y004637D02*
X000413Y004637D01*
X000413Y004448D02*
X000570Y004448D01*
X000570Y004410D02*
X000413Y004410D01*
X000413Y004372D02*
X000570Y004372D01*
X000570Y004334D02*
X000413Y004334D01*
X000413Y004296D02*
X000570Y004296D01*
X000570Y004258D02*
X000413Y004258D01*
X000413Y004220D02*
X000570Y004220D01*
X000570Y004182D02*
X000413Y004182D01*
X000413Y004145D02*
X000570Y004145D01*
X000570Y004107D02*
X000413Y004107D01*
X000413Y004069D02*
X000570Y004069D01*
X000570Y004031D02*
X000413Y004031D01*
X000413Y003993D02*
X000570Y003993D01*
X000570Y003955D02*
X000413Y003955D01*
X000413Y003917D02*
X000570Y003917D01*
X000570Y003879D02*
X000413Y003879D01*
X000413Y003841D02*
X000570Y003841D01*
X000570Y003803D02*
X000413Y003803D01*
X001452Y004675D02*
X001609Y004675D01*
X001609Y004713D02*
X001452Y004713D01*
X001452Y004751D02*
X001609Y004751D01*
X001609Y004789D02*
X001452Y004789D01*
X001452Y004827D02*
X001609Y004827D01*
X001609Y004865D02*
X001452Y004865D01*
X001452Y004903D02*
X001609Y004903D01*
X001609Y004941D02*
X001452Y004941D01*
X001452Y004979D02*
X001609Y004979D01*
X001609Y005017D02*
X001452Y005017D01*
X001452Y005054D02*
X001609Y005054D01*
X001609Y005092D02*
X001452Y005092D01*
X001452Y005130D02*
X001609Y005130D01*
X001609Y005168D02*
X001452Y005168D01*
X001452Y005206D02*
X001609Y005206D01*
X001609Y005244D02*
X001452Y005244D01*
X001452Y005282D02*
X001609Y005282D01*
X001609Y005320D02*
X001452Y005320D01*
X001609Y005358D02*
X000413Y005358D01*
X000413Y005396D02*
X001609Y005396D01*
X001609Y005434D02*
X000413Y005434D01*
X000413Y005472D02*
X001609Y005472D01*
X000570Y005509D02*
X000413Y005509D01*
X000413Y005547D02*
X000570Y005547D01*
X000570Y005585D02*
X000413Y005585D01*
X000413Y005623D02*
X000570Y005623D01*
X000570Y005661D02*
X000413Y005661D01*
X000413Y005699D02*
X000570Y005699D01*
X000570Y005737D02*
X000413Y005737D01*
X000413Y005775D02*
X000570Y005775D01*
X000570Y005813D02*
X000413Y005813D01*
X000413Y005851D02*
X000570Y005851D01*
X000570Y005889D02*
X000413Y005889D01*
X000413Y005926D02*
X000570Y005926D01*
X000570Y005964D02*
X000413Y005964D01*
X000413Y006002D02*
X000570Y006002D01*
X000570Y006040D02*
X000413Y006040D01*
X000413Y006078D02*
X000570Y006078D01*
X000570Y006116D02*
X000413Y006116D01*
X000413Y006154D02*
X000570Y006154D01*
X000570Y006192D02*
X000413Y006192D01*
X000413Y006230D02*
X002121Y006230D01*
X002121Y006268D02*
X000413Y006268D01*
X000413Y006306D02*
X002121Y006306D01*
X002121Y006344D02*
X000413Y006344D01*
X000413Y002742D02*
X000570Y002742D01*
X000570Y002704D02*
X000413Y002704D01*
X000413Y002666D02*
X000570Y002666D01*
X000570Y002628D02*
X000413Y002628D01*
X000413Y002590D02*
X000570Y002590D01*
X000570Y002552D02*
X000413Y002552D01*
X000413Y002514D02*
X000570Y002514D01*
X000570Y002476D02*
X000413Y002476D01*
X000413Y002438D02*
X000570Y002438D01*
X000570Y002401D02*
X000413Y002401D01*
X000413Y002363D02*
X000570Y002363D01*
X000570Y002325D02*
X000413Y002325D01*
X000413Y002287D02*
X000570Y002287D01*
X000570Y002249D02*
X000413Y002249D01*
X000413Y002211D02*
X000570Y002211D01*
X000570Y002173D02*
X000413Y002173D01*
X000413Y002135D02*
X000570Y002135D01*
X000570Y002097D02*
X000413Y002097D01*
X000413Y001908D02*
X000570Y001908D01*
X000570Y001870D02*
X000413Y001870D01*
X000413Y001832D02*
X000570Y001832D01*
X000570Y001794D02*
X000413Y001794D01*
X000413Y001756D02*
X000570Y001756D01*
X000570Y001718D02*
X000413Y001718D01*
X000413Y001680D02*
X000570Y001680D01*
X000570Y001642D02*
X000413Y001642D01*
X000413Y001604D02*
X000570Y001604D01*
X000570Y001566D02*
X000413Y001566D01*
X000413Y001529D02*
X000570Y001529D01*
X000570Y001491D02*
X000413Y001491D01*
X000413Y001453D02*
X000570Y001453D01*
X000570Y001415D02*
X000413Y001415D01*
X000413Y001377D02*
X000570Y001377D01*
X000570Y001339D02*
X000413Y001339D01*
D16*
X008840Y006526D02*
X008952Y006526D01*
X008952Y006178D01*
X008840Y006178D01*
X008840Y006526D01*
X008840Y006379D02*
X008952Y006379D01*
X009549Y006526D02*
X009661Y006526D01*
X009661Y006178D01*
X009549Y006178D01*
X009549Y006526D01*
X009549Y006379D02*
X009661Y006379D01*
D17*
X011101Y006702D03*
X011101Y007702D03*
X011101Y005702D03*
X011101Y004702D03*
X011101Y003702D03*
X011101Y002702D03*
X011101Y001702D03*
X011101Y000702D03*
D18*
X010101Y000694D02*
X009933Y000694D01*
X009932Y000689D02*
X009941Y000737D01*
X009941Y000848D01*
X009605Y000848D01*
X009605Y000512D01*
X009717Y000512D01*
X009765Y000522D01*
X009810Y000541D01*
X009851Y000568D01*
X009886Y000603D01*
X009913Y000643D01*
X009932Y000689D01*
X009941Y000793D02*
X010101Y000793D01*
X010101Y000891D02*
X009605Y000891D01*
X009605Y000848D02*
X009605Y000948D01*
X009941Y000948D01*
X009941Y001060D01*
X009932Y001108D01*
X009913Y001153D01*
X009886Y001194D01*
X009851Y001229D01*
X009810Y001256D01*
X009770Y001273D01*
X009809Y001289D01*
X009850Y001316D01*
X009885Y001351D01*
X009913Y001392D01*
X009932Y001438D01*
X009941Y001486D01*
X009941Y001529D01*
X009574Y001529D01*
X009574Y001260D01*
X009605Y001260D01*
X009605Y000949D01*
X009505Y000949D01*
X009505Y001260D01*
X009536Y001260D01*
X009536Y001529D01*
X009169Y001529D01*
X009169Y001486D01*
X009179Y001438D01*
X009197Y001392D01*
X009225Y001351D01*
X009260Y001316D01*
X009301Y001289D01*
X009340Y001273D01*
X009300Y001256D01*
X009259Y001229D01*
X009225Y001194D01*
X009197Y001153D01*
X009178Y001108D01*
X009169Y001060D01*
X009169Y000948D01*
X009505Y000948D01*
X009505Y000848D01*
X009605Y000848D01*
X009605Y000793D02*
X009505Y000793D01*
X009505Y000848D02*
X009505Y000512D01*
X009394Y000512D01*
X009345Y000522D01*
X009300Y000541D01*
X009259Y000568D01*
X009225Y000603D01*
X009197Y000643D01*
X009178Y000689D01*
X009169Y000737D01*
X009169Y000848D01*
X009505Y000848D01*
X009505Y000891D02*
X008846Y000891D01*
X008846Y000879D02*
X008846Y000917D01*
X009115Y000917D01*
X009115Y001059D01*
X009105Y001107D01*
X009086Y001153D01*
X009059Y001194D01*
X009024Y001229D01*
X008983Y001256D01*
X008937Y001275D01*
X008889Y001285D01*
X008846Y001285D01*
X008846Y000918D01*
X008808Y000918D01*
X008808Y001285D01*
X008765Y001285D01*
X008716Y001275D01*
X008671Y001256D01*
X008630Y001229D01*
X008595Y001194D01*
X008591Y001187D01*
X008586Y001194D01*
X008551Y001229D01*
X008510Y001256D01*
X008465Y001275D01*
X008416Y001285D01*
X008373Y001285D01*
X008373Y000918D01*
X008335Y000918D01*
X008335Y001285D01*
X008292Y001285D01*
X008244Y001275D01*
X008198Y001256D01*
X008157Y001229D01*
X008122Y001194D01*
X008108Y001172D01*
X008015Y001265D01*
X007749Y001265D01*
X007646Y001161D01*
X007542Y001265D01*
X007277Y001265D01*
X007173Y001161D01*
X007070Y001265D01*
X006804Y001265D01*
X006701Y001161D01*
X006597Y001265D01*
X006332Y001265D01*
X006228Y001161D01*
X006125Y001265D01*
X005859Y001265D01*
X005756Y001161D01*
X005652Y001265D01*
X005387Y001265D01*
X005283Y001161D01*
X005180Y001265D01*
X004914Y001265D01*
X004821Y001172D01*
X004807Y001194D01*
X004772Y001229D01*
X004731Y001256D01*
X004685Y001275D01*
X004637Y001285D01*
X004594Y001285D01*
X004594Y000918D01*
X004556Y000918D01*
X004556Y001285D01*
X004513Y001285D01*
X004464Y001275D01*
X004419Y001256D01*
X004378Y001229D01*
X004343Y001194D01*
X004316Y001153D01*
X004297Y001107D01*
X004287Y001059D01*
X004287Y000917D01*
X004556Y000917D01*
X004556Y000879D01*
X004594Y000879D01*
X004594Y000512D01*
X004637Y000512D01*
X004685Y000522D01*
X004731Y000541D01*
X004772Y000568D01*
X004807Y000603D01*
X004821Y000625D01*
X004914Y000532D01*
X005180Y000532D01*
X005283Y000636D01*
X005387Y000532D01*
X005652Y000532D01*
X005756Y000636D01*
X005859Y000532D01*
X006125Y000532D01*
X006228Y000636D01*
X006285Y000579D01*
X006285Y000513D01*
X006285Y000502D01*
X002376Y000502D01*
X002376Y001089D01*
X002403Y001062D01*
X002444Y001035D01*
X002489Y001016D01*
X002537Y001006D01*
X002601Y001006D01*
X002665Y001006D01*
X002713Y001016D01*
X002758Y001035D01*
X002799Y001062D01*
X002833Y001096D01*
X002851Y001123D01*
X002868Y001096D01*
X002903Y001062D01*
X002944Y001035D01*
X002989Y001016D01*
X003037Y001006D01*
X003101Y001006D01*
X003165Y001006D01*
X003213Y001016D01*
X003258Y001035D01*
X003299Y001062D01*
X003333Y001096D01*
X003360Y001137D01*
X003379Y001182D01*
X003389Y001230D01*
X003389Y001254D01*
X003101Y001254D01*
X003101Y001006D01*
X003101Y001254D01*
X003101Y001254D01*
X003101Y001255D01*
X003389Y001255D01*
X003389Y001279D01*
X003384Y001302D01*
X003573Y001302D01*
X003592Y001289D01*
X003631Y001273D01*
X003591Y001256D01*
X003551Y001229D01*
X003516Y001194D01*
X003489Y001153D01*
X003470Y001108D01*
X003460Y001060D01*
X003460Y000948D01*
X003796Y000948D01*
X003796Y000848D01*
X003896Y000848D01*
X003896Y000512D01*
X004008Y000512D01*
X004056Y000522D01*
X004101Y000541D01*
X004142Y000568D01*
X004177Y000603D01*
X004204Y000643D01*
X004223Y000689D01*
X004233Y000737D01*
X004233Y000848D01*
X003897Y000848D01*
X003897Y000948D01*
X004233Y000948D01*
X004233Y001060D01*
X004223Y001108D01*
X004204Y001153D01*
X004177Y001194D01*
X004142Y001229D01*
X004101Y001256D01*
X004062Y001273D01*
X004101Y001289D01*
X004142Y001316D01*
X004177Y001351D01*
X004204Y001392D01*
X004223Y001438D01*
X004233Y001486D01*
X004233Y001529D01*
X003866Y001529D01*
X003866Y001567D01*
X004233Y001567D01*
X004233Y001610D01*
X004223Y001658D01*
X004211Y001686D01*
X004225Y001695D01*
X004257Y001727D01*
X004281Y001765D01*
X004296Y001807D01*
X004301Y001852D01*
X004301Y002202D01*
X004296Y002246D01*
X004281Y002288D01*
X004257Y002326D01*
X004225Y002358D01*
X004215Y002364D01*
X004223Y002383D01*
X004233Y002431D01*
X004233Y002474D01*
X003866Y002474D01*
X003866Y002512D01*
X004233Y002512D01*
X004233Y002555D01*
X004223Y002603D01*
X004204Y002649D01*
X004177Y002690D01*
X004142Y002725D01*
X004135Y002729D01*
X004142Y002734D01*
X004177Y002768D01*
X004204Y002809D01*
X004223Y002855D01*
X004233Y002903D01*
X004233Y002946D01*
X003866Y002946D01*
X003866Y002984D01*
X004233Y002984D01*
X004233Y003027D01*
X004223Y003076D01*
X004204Y003121D01*
X004177Y003162D01*
X004142Y003197D01*
X004135Y003202D01*
X004142Y003206D01*
X004177Y003241D01*
X004204Y003282D01*
X004223Y003327D01*
X004233Y003376D01*
X004233Y003419D01*
X003866Y003419D01*
X003866Y003457D01*
X004233Y003457D01*
X004233Y003500D01*
X004223Y003548D01*
X004204Y003594D01*
X004177Y003635D01*
X004142Y003670D01*
X004135Y003674D01*
X004142Y003678D01*
X004177Y003713D01*
X004204Y003754D01*
X004223Y003800D01*
X004233Y003848D01*
X004233Y003891D01*
X003866Y003891D01*
X003866Y003929D01*
X004233Y003929D01*
X004233Y003972D01*
X004223Y004021D01*
X004204Y004066D01*
X004177Y004107D01*
X004142Y004142D01*
X004120Y004157D01*
X004213Y004250D01*
X004213Y004515D01*
X004109Y004619D01*
X004213Y004722D01*
X004213Y004988D01*
X004078Y005123D01*
X004030Y005123D01*
X004056Y005128D01*
X004101Y005147D01*
X004142Y005174D01*
X004177Y005209D01*
X004204Y005250D01*
X004223Y005295D01*
X004233Y005343D01*
X004233Y005455D01*
X003897Y005455D01*
X003897Y005555D01*
X004233Y005555D01*
X004233Y005666D01*
X004223Y005714D01*
X004204Y005760D01*
X004177Y005801D01*
X004142Y005835D01*
X004101Y005863D01*
X004056Y005881D01*
X004008Y005891D01*
X003896Y005891D01*
X003896Y005555D01*
X003796Y005555D01*
X003796Y005891D01*
X003685Y005891D01*
X003637Y005881D01*
X003601Y005866D01*
X003601Y006602D01*
X005546Y006602D01*
X005445Y006500D01*
X005340Y006395D01*
X005340Y005824D01*
X005283Y005767D01*
X005231Y005820D01*
X005231Y006126D01*
X005231Y006126D01*
X005231Y006140D01*
X005142Y006293D01*
X004989Y006381D01*
X004975Y006381D01*
X004975Y006382D01*
X004901Y006382D01*
X004826Y006382D01*
X004626Y006382D01*
X004619Y006382D01*
X004477Y006300D01*
X004477Y006300D01*
X004477Y006300D01*
X004395Y006158D01*
X004395Y006158D01*
X004395Y006076D01*
X004395Y006001D01*
X004395Y005824D01*
X004307Y005736D01*
X004307Y005274D01*
X004442Y005139D01*
X004708Y005139D01*
X004811Y005242D01*
X004914Y005139D01*
X005180Y005139D01*
X005283Y005242D01*
X005387Y005139D01*
X005652Y005139D01*
X005745Y005232D01*
X005760Y005209D01*
X005795Y005174D01*
X005836Y005147D01*
X005882Y005128D01*
X005930Y005119D01*
X005973Y005119D01*
X005973Y005486D01*
X006011Y005486D01*
X006011Y005119D01*
X006054Y005119D01*
X006102Y005128D01*
X006148Y005147D01*
X006189Y005174D01*
X006224Y005209D01*
X006239Y005232D01*
X006332Y005139D01*
X006597Y005139D01*
X006701Y005242D01*
X006804Y005139D01*
X007070Y005139D01*
X007163Y005232D01*
X007178Y005209D01*
X007212Y005174D01*
X007254Y005147D01*
X007299Y005128D01*
X007348Y005119D01*
X007390Y005119D01*
X007390Y005486D01*
X007428Y005486D01*
X007428Y005119D01*
X007471Y005119D01*
X007520Y005128D01*
X007565Y005147D01*
X007606Y005174D01*
X007641Y005209D01*
X007646Y005216D01*
X007650Y005209D01*
X007685Y005174D01*
X007726Y005147D01*
X007772Y005128D01*
X007820Y005119D01*
X007863Y005119D01*
X007863Y005486D01*
X007697Y005486D01*
X007429Y005486D01*
X007429Y005524D01*
X007697Y005524D01*
X007863Y005524D01*
X007863Y005891D01*
X007820Y005891D01*
X007772Y005881D01*
X007726Y005862D01*
X007685Y005835D01*
X007650Y005800D01*
X007646Y005793D01*
X007641Y005800D01*
X007606Y005835D01*
X007565Y005862D01*
X007520Y005881D01*
X007471Y005891D01*
X007428Y005891D01*
X007428Y005524D01*
X007390Y005524D01*
X007390Y005891D01*
X007348Y005891D01*
X007299Y005881D01*
X007254Y005862D01*
X007212Y005835D01*
X007178Y005800D01*
X007167Y005784D01*
X007167Y005793D01*
X007167Y005888D01*
X007171Y005933D01*
X007206Y006018D01*
X007271Y006082D01*
X007355Y006117D01*
X007401Y006122D01*
X007692Y006122D01*
X007695Y006118D01*
X007796Y006077D01*
X007905Y006077D01*
X008001Y006116D01*
X008096Y006077D01*
X008205Y006077D01*
X008307Y006118D01*
X008310Y006122D01*
X008609Y006122D01*
X008609Y006082D01*
X008617Y006074D01*
X008617Y005794D01*
X008601Y005778D01*
X008586Y005800D01*
X008551Y005835D01*
X008510Y005862D01*
X008465Y005881D01*
X008416Y005891D01*
X008373Y005891D01*
X008373Y005524D01*
X008335Y005524D01*
X008335Y005891D01*
X008292Y005891D01*
X008244Y005881D01*
X008198Y005862D01*
X008157Y005835D01*
X008122Y005800D01*
X008118Y005793D01*
X008114Y005800D01*
X008079Y005835D01*
X008038Y005862D01*
X007992Y005881D01*
X007944Y005891D01*
X007901Y005891D01*
X007901Y005524D01*
X007863Y005524D01*
X007863Y005486D01*
X007901Y005486D01*
X007901Y005524D01*
X008170Y005524D01*
X008335Y005524D01*
X008335Y005486D01*
X008170Y005486D01*
X007901Y005486D01*
X007901Y005119D01*
X007944Y005119D01*
X007992Y005128D01*
X008038Y005147D01*
X008079Y005174D01*
X008114Y005209D01*
X008118Y005216D01*
X008122Y005209D01*
X008157Y005174D01*
X008198Y005147D01*
X008244Y005128D01*
X008292Y005119D01*
X008335Y005119D01*
X008335Y005486D01*
X008373Y005486D01*
X008373Y005119D01*
X008416Y005119D01*
X008465Y005128D01*
X008510Y005147D01*
X008551Y005174D01*
X008586Y005209D01*
X008601Y005232D01*
X008694Y005139D01*
X008959Y005139D01*
X009095Y005274D01*
X009095Y005736D01*
X009037Y005794D01*
X009037Y005947D01*
X009049Y005947D01*
X009184Y006082D01*
X009184Y006602D01*
X009308Y006602D01*
X009307Y006599D01*
X009298Y006550D01*
X009298Y006380D01*
X009576Y006380D01*
X009576Y006323D01*
X009298Y006323D01*
X009298Y006153D01*
X009307Y006104D01*
X009326Y006059D01*
X009354Y006017D01*
X009389Y005983D01*
X009430Y005955D01*
X009475Y005936D01*
X009524Y005927D01*
X009576Y005927D01*
X009576Y006323D01*
X009634Y006323D01*
X009634Y006380D01*
X009913Y006380D01*
X009913Y006550D01*
X009903Y006599D01*
X009902Y006602D01*
X010101Y006602D01*
X010101Y005456D01*
X009926Y005281D01*
X009932Y005295D01*
X009941Y005343D01*
X009941Y005455D01*
X009605Y005455D01*
X009605Y005555D01*
X009505Y005555D01*
X009505Y005891D01*
X009394Y005891D01*
X009345Y005881D01*
X009300Y005863D01*
X009259Y005835D01*
X009225Y005801D01*
X009197Y005760D01*
X009178Y005714D01*
X009169Y005666D01*
X009169Y005555D01*
X009505Y005555D01*
X009505Y005455D01*
X009169Y005455D01*
X009169Y005343D01*
X009178Y005295D01*
X009197Y005250D01*
X009225Y005209D01*
X009259Y005174D01*
X009300Y005147D01*
X009340Y005130D01*
X009301Y005114D01*
X009260Y005087D01*
X009225Y005052D01*
X009197Y005011D01*
X009179Y004965D01*
X009169Y004917D01*
X009169Y004874D01*
X009536Y004874D01*
X009536Y004836D01*
X009169Y004836D01*
X009169Y004793D01*
X009179Y004745D01*
X009197Y004699D01*
X009225Y004658D01*
X009260Y004623D01*
X009282Y004608D01*
X009189Y004515D01*
X009189Y004250D01*
X009282Y004157D01*
X009260Y004142D01*
X009225Y004107D01*
X009197Y004066D01*
X009179Y004021D01*
X009169Y003972D01*
X009169Y003929D01*
X009536Y003929D01*
X009536Y003891D01*
X009169Y003891D01*
X009169Y003848D01*
X008642Y003848D01*
X008642Y003946D02*
X009169Y003946D01*
X009169Y003848D02*
X009179Y003800D01*
X009197Y003754D01*
X009225Y003713D01*
X009260Y003678D01*
X009282Y003664D01*
X009189Y003571D01*
X009189Y003305D01*
X009292Y003202D01*
X009189Y003098D01*
X009189Y002833D01*
X009292Y002729D01*
X009189Y002626D01*
X009189Y002360D01*
X009292Y002257D01*
X009189Y002153D01*
X009189Y001888D01*
X009282Y001795D01*
X009260Y001780D01*
X009225Y001745D01*
X009197Y001704D01*
X009179Y001658D01*
X009169Y001610D01*
X009169Y001567D01*
X009536Y001567D01*
X009536Y001529D01*
X009574Y001529D01*
X009574Y001567D01*
X009941Y001567D01*
X009941Y001610D01*
X009932Y001658D01*
X009913Y001704D01*
X009885Y001745D01*
X009850Y001780D01*
X009828Y001795D01*
X009874Y001840D01*
X010101Y001840D01*
X010101Y000502D01*
X007587Y000502D01*
X007589Y000506D01*
X007589Y000536D01*
X007589Y000579D01*
X007646Y000636D01*
X007749Y000532D01*
X008015Y000532D01*
X008108Y000625D01*
X008122Y000603D01*
X008157Y000568D01*
X008198Y000541D01*
X008244Y000522D01*
X008292Y000512D01*
X008335Y000512D01*
X008335Y000879D01*
X008373Y000879D01*
X008373Y000512D01*
X008416Y000512D01*
X008465Y000522D01*
X008510Y000541D01*
X008551Y000568D01*
X008586Y000603D01*
X008591Y000610D01*
X008595Y000603D01*
X008630Y000568D01*
X008671Y000541D01*
X008716Y000522D01*
X008765Y000512D01*
X008808Y000512D01*
X008808Y000879D01*
X008846Y000879D01*
X008846Y000512D01*
X008889Y000512D01*
X008937Y000522D01*
X008983Y000541D01*
X009024Y000568D01*
X009059Y000603D01*
X009086Y000644D01*
X009105Y000690D01*
X009115Y000738D01*
X009115Y000879D01*
X008846Y000879D01*
X008808Y000879D02*
X008539Y000879D01*
X008373Y000879D01*
X008373Y000917D01*
X008539Y000917D01*
X008808Y000917D01*
X008808Y000879D01*
X008808Y000891D02*
X008373Y000891D01*
X008373Y000793D02*
X008335Y000793D01*
X008335Y000694D02*
X008373Y000694D01*
X008373Y000596D02*
X008335Y000596D01*
X008130Y000596D02*
X008078Y000596D01*
X007686Y000596D02*
X007606Y000596D01*
X007589Y000506D02*
X007589Y000506D01*
X007409Y000610D02*
X007409Y000898D01*
X007410Y000610D02*
X007408Y000583D01*
X007403Y000556D01*
X007394Y000530D01*
X007382Y000505D01*
X007367Y000483D01*
X007349Y000462D01*
X007328Y000444D01*
X007305Y000429D01*
X007281Y000417D01*
X007255Y000408D01*
X007228Y000403D01*
X007201Y000401D01*
X007201Y000402D02*
X006651Y000402D01*
X006625Y000404D01*
X006599Y000410D01*
X006574Y000419D01*
X006550Y000432D01*
X006529Y000447D01*
X006510Y000466D01*
X006495Y000487D01*
X006482Y000511D01*
X006473Y000536D01*
X006467Y000562D01*
X006465Y000588D01*
X006465Y000898D01*
X006268Y000596D02*
X006188Y000596D01*
X005796Y000596D02*
X005716Y000596D01*
X005323Y000596D02*
X005243Y000596D01*
X004851Y000596D02*
X004799Y000596D01*
X004594Y000596D02*
X004556Y000596D01*
X004556Y000512D02*
X004556Y000879D01*
X004287Y000879D01*
X004287Y000738D01*
X004297Y000690D01*
X004316Y000644D01*
X004343Y000603D01*
X004378Y000568D01*
X004419Y000541D01*
X004464Y000522D01*
X004513Y000512D01*
X004556Y000512D01*
X004350Y000596D02*
X004170Y000596D01*
X004224Y000694D02*
X004296Y000694D01*
X004287Y000793D02*
X004233Y000793D01*
X004233Y000990D02*
X004287Y000990D01*
X004293Y001088D02*
X004227Y001088D01*
X004182Y001187D02*
X004338Y001187D01*
X004556Y001187D02*
X004594Y001187D01*
X004594Y001088D02*
X004556Y001088D01*
X004556Y000990D02*
X004594Y000990D01*
X004556Y000891D02*
X003897Y000891D01*
X003896Y000949D02*
X003796Y000949D01*
X003796Y001260D01*
X003827Y001260D01*
X003827Y001529D01*
X003865Y001529D01*
X003865Y001260D01*
X003896Y001260D01*
X003896Y000949D01*
X003896Y000990D02*
X003796Y000990D01*
X003796Y000891D02*
X002376Y000891D01*
X002376Y000793D02*
X003460Y000793D01*
X003460Y000848D02*
X003460Y000737D01*
X003470Y000689D01*
X003489Y000643D01*
X003516Y000603D01*
X003551Y000568D01*
X003591Y000541D01*
X003637Y000522D01*
X003685Y000512D01*
X003796Y000512D01*
X003796Y000848D01*
X003460Y000848D01*
X003460Y000990D02*
X002376Y000990D01*
X002376Y001088D02*
X002376Y001088D01*
X002401Y001175D02*
X002451Y001175D01*
X002471Y001155D01*
X002601Y001187D02*
X002601Y001187D01*
X002601Y001254D02*
X002601Y001006D01*
X002601Y001254D01*
X002601Y001254D01*
X002601Y001255D01*
X002889Y001255D01*
X003100Y001255D01*
X003100Y001254D01*
X002889Y001254D01*
X002601Y001254D01*
X002601Y001088D02*
X002601Y001088D01*
X002825Y001088D02*
X002876Y001088D01*
X003101Y001088D02*
X003101Y001088D01*
X003101Y001187D02*
X003101Y001187D01*
X003325Y001088D02*
X003466Y001088D01*
X003511Y001187D02*
X003380Y001187D01*
X003387Y001286D02*
X003600Y001286D01*
X003796Y001187D02*
X003896Y001187D01*
X003896Y001088D02*
X003796Y001088D01*
X003827Y001286D02*
X003865Y001286D01*
X003865Y001384D02*
X003827Y001384D01*
X003827Y001483D02*
X003865Y001483D01*
X004093Y001286D02*
X009309Y001286D01*
X009220Y001187D02*
X009063Y001187D01*
X009109Y001088D02*
X009175Y001088D01*
X009169Y000990D02*
X009115Y000990D01*
X009115Y000793D02*
X009169Y000793D01*
X009177Y000694D02*
X009106Y000694D01*
X009051Y000596D02*
X009231Y000596D01*
X009505Y000596D02*
X009605Y000596D01*
X009605Y000694D02*
X009505Y000694D01*
X009505Y000990D02*
X009605Y000990D01*
X009605Y001088D02*
X009505Y001088D01*
X009505Y001187D02*
X009605Y001187D01*
X009574Y001286D02*
X009536Y001286D01*
X009536Y001384D02*
X009574Y001384D01*
X009574Y001483D02*
X009536Y001483D01*
X009802Y001286D02*
X010101Y001286D01*
X010101Y001384D02*
X009907Y001384D01*
X009941Y001483D02*
X010101Y001483D01*
X010101Y001581D02*
X009941Y001581D01*
X009923Y001680D02*
X010101Y001680D01*
X010101Y001778D02*
X009852Y001778D01*
X009555Y002020D02*
X010782Y002020D01*
X011101Y001702D01*
X010101Y001187D02*
X009891Y001187D01*
X009936Y001088D02*
X010101Y001088D01*
X010101Y000990D02*
X009941Y000990D01*
X009879Y000596D02*
X010101Y000596D01*
X009203Y001384D02*
X004199Y001384D01*
X004232Y001483D02*
X009170Y001483D01*
X009169Y001581D02*
X004233Y001581D01*
X004214Y001680D02*
X009187Y001680D01*
X009258Y001778D02*
X008535Y001778D01*
X008551Y001789D02*
X008510Y001761D01*
X008464Y001742D01*
X008416Y001733D01*
X008168Y001733D01*
X008168Y002305D01*
X008068Y002305D01*
X008068Y001733D01*
X007820Y001733D01*
X007772Y001742D01*
X007726Y001761D01*
X007685Y001789D01*
X007650Y001824D01*
X007623Y001865D01*
X007604Y001910D01*
X007594Y001959D01*
X007594Y002305D01*
X008068Y002305D01*
X008068Y002405D01*
X007594Y002405D01*
X007594Y002751D01*
X007604Y002800D01*
X007623Y002845D01*
X007650Y002887D01*
X007685Y002921D01*
X007726Y002949D01*
X007772Y002968D01*
X007820Y002978D01*
X008068Y002978D01*
X008068Y002405D01*
X008168Y002405D01*
X008168Y002978D01*
X008416Y002978D01*
X008464Y002968D01*
X008510Y002949D01*
X008551Y002921D01*
X008586Y002887D01*
X008614Y002845D01*
X008632Y002800D01*
X008642Y002751D01*
X008642Y002405D01*
X008168Y002405D01*
X008168Y002305D01*
X008642Y002305D01*
X008642Y001959D01*
X008632Y001910D01*
X008614Y001865D01*
X008586Y001824D01*
X008551Y001789D01*
X008619Y001877D02*
X009200Y001877D01*
X009189Y001975D02*
X008642Y001975D01*
X008642Y002074D02*
X009189Y002074D01*
X009208Y002172D02*
X008642Y002172D01*
X008642Y002271D02*
X009278Y002271D01*
X009189Y002370D02*
X008168Y002370D01*
X008168Y002468D02*
X008068Y002468D01*
X008068Y002370D02*
X006751Y002370D01*
X006751Y002405D02*
X007225Y002405D01*
X007225Y002751D01*
X007215Y002800D01*
X007196Y002845D01*
X007169Y002887D01*
X007134Y002921D01*
X007093Y002949D01*
X007047Y002968D01*
X006999Y002978D01*
X006751Y002978D01*
X006751Y002405D01*
X006751Y002305D01*
X007225Y002305D01*
X007225Y001959D01*
X007215Y001910D01*
X007196Y001865D01*
X007169Y001824D01*
X007134Y001789D01*
X007093Y001761D01*
X007047Y001742D01*
X006999Y001733D01*
X006751Y001733D01*
X006751Y002305D01*
X006651Y002305D01*
X006651Y001733D01*
X006403Y001733D01*
X006355Y001742D01*
X006309Y001761D01*
X006268Y001789D01*
X006233Y001824D01*
X006205Y001865D01*
X006186Y001910D01*
X006177Y001959D01*
X006177Y002305D01*
X006651Y002305D01*
X006651Y002405D01*
X006651Y002978D01*
X006403Y002978D01*
X006355Y002968D01*
X006309Y002949D01*
X006268Y002921D01*
X006233Y002887D01*
X006205Y002845D01*
X006186Y002800D01*
X006177Y002751D01*
X006177Y002405D01*
X006651Y002405D01*
X006751Y002405D01*
X006751Y002468D02*
X006651Y002468D01*
X006651Y002370D02*
X005334Y002370D01*
X005334Y002405D02*
X005807Y002405D01*
X005807Y002751D01*
X005798Y002800D01*
X005779Y002845D01*
X005751Y002887D01*
X005716Y002921D01*
X005675Y002949D01*
X005630Y002968D01*
X005581Y002978D01*
X005333Y002978D01*
X005333Y002405D01*
X005234Y002405D01*
X005234Y002978D01*
X004986Y002978D01*
X004937Y002968D01*
X004892Y002949D01*
X004850Y002921D01*
X004815Y002887D01*
X004788Y002845D01*
X004769Y002800D01*
X004759Y002751D01*
X004759Y002405D01*
X005233Y002405D01*
X005233Y002305D01*
X004759Y002305D01*
X004759Y001959D01*
X004769Y001910D01*
X004788Y001865D01*
X004815Y001824D01*
X004850Y001789D01*
X004892Y001761D01*
X004937Y001742D01*
X004986Y001733D01*
X005234Y001733D01*
X005234Y002305D01*
X005333Y002305D01*
X005333Y001733D01*
X005581Y001733D01*
X005630Y001742D01*
X005675Y001761D01*
X005716Y001789D01*
X005751Y001824D01*
X005779Y001865D01*
X005798Y001910D01*
X005807Y001959D01*
X005807Y002305D01*
X005334Y002305D01*
X005334Y002405D01*
X005333Y002468D02*
X005234Y002468D01*
X005233Y002370D02*
X004218Y002370D01*
X004233Y002468D02*
X004759Y002468D01*
X004759Y002567D02*
X004230Y002567D01*
X004193Y002665D02*
X004759Y002665D01*
X004762Y002764D02*
X004172Y002764D01*
X004224Y002862D02*
X004799Y002862D01*
X004920Y002961D02*
X003866Y002961D01*
X003865Y002946D02*
X003865Y002781D01*
X003865Y002512D01*
X003827Y002512D01*
X003827Y002781D01*
X003827Y002946D01*
X003865Y002946D01*
X003865Y002984D02*
X003827Y002984D01*
X003827Y003150D01*
X003827Y003419D01*
X003865Y003419D01*
X003865Y003150D01*
X003865Y002984D01*
X003865Y003059D02*
X003827Y003059D01*
X003827Y003158D02*
X003865Y003158D01*
X003865Y003256D02*
X003827Y003256D01*
X003827Y003355D02*
X003865Y003355D01*
X003866Y003454D02*
X004893Y003454D01*
X004892Y003454D02*
X004937Y003435D01*
X004986Y003426D01*
X005234Y003426D01*
X005234Y003998D01*
X005333Y003998D01*
X005333Y003426D01*
X005581Y003426D01*
X005630Y003435D01*
X005675Y003454D01*
X005716Y003482D01*
X005751Y003517D01*
X005779Y003558D01*
X005798Y003603D01*
X005807Y003652D01*
X005807Y003998D01*
X005334Y003998D01*
X005334Y004098D01*
X005807Y004098D01*
X005807Y004444D01*
X005798Y004493D01*
X005779Y004538D01*
X005751Y004579D01*
X005716Y004614D01*
X005675Y004642D01*
X005630Y004661D01*
X005581Y004670D01*
X005333Y004670D01*
X005333Y004098D01*
X005234Y004098D01*
X005234Y004670D01*
X004986Y004670D01*
X004937Y004661D01*
X004892Y004642D01*
X004850Y004614D01*
X004815Y004579D01*
X004788Y004538D01*
X004769Y004493D01*
X004759Y004444D01*
X004759Y004098D01*
X005233Y004098D01*
X005233Y003998D01*
X004759Y003998D01*
X004759Y003652D01*
X004769Y003603D01*
X004788Y003558D01*
X004815Y003517D01*
X004850Y003482D01*
X004892Y003454D01*
X004792Y003552D02*
X004221Y003552D01*
X004161Y003651D02*
X004760Y003651D01*
X004759Y003749D02*
X004201Y003749D01*
X004232Y003848D02*
X004759Y003848D01*
X004759Y003946D02*
X004233Y003946D01*
X004213Y004045D02*
X005233Y004045D01*
X005234Y004143D02*
X005333Y004143D01*
X005334Y004045D02*
X006651Y004045D01*
X006651Y003998D02*
X006177Y003998D01*
X006177Y003652D01*
X006186Y003603D01*
X006205Y003558D01*
X006233Y003517D01*
X006268Y003482D01*
X006309Y003454D01*
X006355Y003435D01*
X006403Y003426D01*
X006651Y003426D01*
X006651Y003998D01*
X006751Y003998D01*
X006751Y004098D01*
X007225Y004098D01*
X007225Y004444D01*
X007215Y004493D01*
X007196Y004538D01*
X007169Y004579D01*
X007134Y004614D01*
X007093Y004642D01*
X007047Y004661D01*
X006999Y004670D01*
X006751Y004670D01*
X006751Y004098D01*
X006651Y004098D01*
X006651Y004670D01*
X006403Y004670D01*
X006355Y004661D01*
X006309Y004642D01*
X006268Y004614D01*
X006233Y004579D01*
X006205Y004538D01*
X006186Y004493D01*
X006177Y004444D01*
X006177Y004098D01*
X006651Y004098D01*
X006651Y003998D01*
X006651Y003946D02*
X006751Y003946D01*
X006751Y003998D02*
X006751Y003426D01*
X006999Y003426D01*
X007047Y003435D01*
X007093Y003454D01*
X007134Y003482D01*
X007169Y003517D01*
X007196Y003558D01*
X007215Y003603D01*
X007225Y003652D01*
X007225Y003998D01*
X006751Y003998D01*
X006751Y004045D02*
X008068Y004045D01*
X008068Y003998D02*
X007594Y003998D01*
X007594Y003652D01*
X007604Y003603D01*
X007623Y003558D01*
X007650Y003517D01*
X007685Y003482D01*
X007726Y003454D01*
X007772Y003435D01*
X007820Y003426D01*
X008068Y003426D01*
X008068Y003998D01*
X008068Y004098D01*
X007594Y004098D01*
X007594Y004444D01*
X007604Y004493D01*
X007623Y004538D01*
X007650Y004579D01*
X007685Y004614D01*
X007726Y004642D01*
X007772Y004661D01*
X007820Y004670D01*
X008068Y004670D01*
X008068Y004098D01*
X008168Y004098D01*
X008168Y004670D01*
X008416Y004670D01*
X008464Y004661D01*
X008510Y004642D01*
X008551Y004614D01*
X008586Y004579D01*
X008614Y004538D01*
X008614Y004537D02*
X009211Y004537D01*
X009189Y004439D02*
X008642Y004439D01*
X008642Y004444D02*
X008632Y004493D01*
X008614Y004538D01*
X008642Y004444D02*
X008642Y004098D01*
X008168Y004098D01*
X008168Y003998D01*
X008168Y003426D01*
X008416Y003426D01*
X008464Y003435D01*
X008510Y003454D01*
X008551Y003482D01*
X008586Y003517D01*
X008614Y003558D01*
X008632Y003603D01*
X008642Y003652D01*
X008642Y003998D01*
X008168Y003998D01*
X008068Y003998D01*
X008068Y003946D02*
X008168Y003946D01*
X008168Y003848D02*
X008068Y003848D01*
X008068Y003749D02*
X008168Y003749D01*
X008168Y003651D02*
X008068Y003651D01*
X008068Y003552D02*
X008168Y003552D01*
X008168Y003454D02*
X008068Y003454D01*
X007728Y003454D02*
X007091Y003454D01*
X007192Y003552D02*
X007626Y003552D01*
X007594Y003651D02*
X007224Y003651D01*
X007225Y003749D02*
X007594Y003749D01*
X007594Y003848D02*
X007225Y003848D01*
X007225Y003946D02*
X007594Y003946D01*
X007594Y004143D02*
X007225Y004143D01*
X007225Y004242D02*
X007594Y004242D01*
X007594Y004340D02*
X007225Y004340D01*
X007225Y004439D02*
X007594Y004439D01*
X007622Y004537D02*
X007197Y004537D01*
X007101Y004636D02*
X007717Y004636D01*
X008068Y004636D02*
X008168Y004636D01*
X008168Y004537D02*
X008068Y004537D01*
X008068Y004439D02*
X008168Y004439D01*
X008168Y004340D02*
X008068Y004340D01*
X008068Y004242D02*
X008168Y004242D01*
X008168Y004143D02*
X008068Y004143D01*
X008168Y004045D02*
X009189Y004045D01*
X009262Y004143D02*
X008642Y004143D01*
X008642Y004242D02*
X009197Y004242D01*
X009189Y004340D02*
X008642Y004340D01*
X008519Y004636D02*
X009247Y004636D01*
X009183Y004735D02*
X004213Y004735D01*
X004213Y004833D02*
X009169Y004833D01*
X009172Y004932D02*
X004213Y004932D01*
X004170Y005030D02*
X009210Y005030D01*
X009336Y005129D02*
X008466Y005129D01*
X008373Y005129D02*
X008335Y005129D01*
X008243Y005129D02*
X007994Y005129D01*
X007901Y005129D02*
X007863Y005129D01*
X007770Y005129D02*
X007521Y005129D01*
X007428Y005129D02*
X007390Y005129D01*
X007298Y005129D02*
X006104Y005129D01*
X006011Y005129D02*
X005973Y005129D01*
X005880Y005129D02*
X004058Y005129D01*
X004189Y005227D02*
X004353Y005227D01*
X004307Y005326D02*
X004229Y005326D01*
X004233Y005424D02*
X004307Y005424D01*
X004307Y005523D02*
X003897Y005523D01*
X003896Y005621D02*
X003796Y005621D01*
X003796Y005720D02*
X003896Y005720D01*
X003896Y005819D02*
X003796Y005819D01*
X003601Y005917D02*
X004395Y005917D01*
X004390Y005819D02*
X004159Y005819D01*
X004221Y005720D02*
X004307Y005720D01*
X004307Y005621D02*
X004233Y005621D01*
X004575Y005505D02*
X004575Y006076D01*
X004577Y006096D01*
X004581Y006115D01*
X004589Y006133D01*
X004599Y006150D01*
X004612Y006165D01*
X004627Y006178D01*
X004644Y006188D01*
X004662Y006196D01*
X004681Y006200D01*
X004701Y006202D01*
X004901Y006202D01*
X004924Y006200D01*
X004947Y006195D01*
X004969Y006186D01*
X004989Y006173D01*
X005007Y006158D01*
X005022Y006140D01*
X005035Y006120D01*
X005044Y006098D01*
X005049Y006075D01*
X005051Y006052D01*
X005051Y005508D01*
X005050Y005506D01*
X005049Y005505D01*
X005047Y005504D01*
X004826Y005227D02*
X004796Y005227D01*
X005269Y005227D02*
X005298Y005227D01*
X005520Y005505D02*
X005520Y006320D01*
X006201Y007002D01*
X010801Y007002D01*
X011101Y006702D01*
X010101Y006508D02*
X009913Y006508D01*
X009913Y006410D02*
X010101Y006410D01*
X010101Y006311D02*
X009913Y006311D01*
X009913Y006323D02*
X009634Y006323D01*
X009634Y005927D01*
X009686Y005927D01*
X009735Y005936D01*
X009781Y005955D01*
X009822Y005983D01*
X009857Y006017D01*
X009884Y006059D01*
X009903Y006104D01*
X009913Y006153D01*
X009913Y006323D01*
X009913Y006213D02*
X010101Y006213D01*
X010101Y006114D02*
X009905Y006114D01*
X009855Y006016D02*
X010101Y006016D01*
X010101Y005917D02*
X009037Y005917D01*
X009037Y005819D02*
X009242Y005819D01*
X009181Y005720D02*
X009095Y005720D01*
X009095Y005621D02*
X009169Y005621D01*
X009095Y005523D02*
X009505Y005523D01*
X009505Y005455D02*
X009605Y005455D01*
X009605Y005143D01*
X009574Y005143D01*
X009574Y004874D01*
X009536Y004874D01*
X009536Y005143D01*
X009505Y005143D01*
X009505Y005455D01*
X009505Y005424D02*
X009605Y005424D01*
X009605Y005326D02*
X009505Y005326D01*
X009505Y005227D02*
X009605Y005227D01*
X009574Y005129D02*
X009536Y005129D01*
X009536Y005030D02*
X009574Y005030D01*
X009574Y004932D02*
X009536Y004932D01*
X009212Y005227D02*
X009048Y005227D01*
X009095Y005326D02*
X009172Y005326D01*
X009169Y005424D02*
X009095Y005424D01*
X009505Y005621D02*
X009605Y005621D01*
X009605Y005555D02*
X009605Y005891D01*
X009717Y005891D01*
X009765Y005881D01*
X009810Y005863D01*
X009851Y005835D01*
X009886Y005801D01*
X009913Y005760D01*
X009932Y005714D01*
X009941Y005666D01*
X009941Y005555D01*
X009605Y005555D01*
X009605Y005523D02*
X010101Y005523D01*
X010101Y005621D02*
X009941Y005621D01*
X009929Y005720D02*
X010101Y005720D01*
X010101Y005819D02*
X009868Y005819D01*
X009605Y005819D02*
X009505Y005819D01*
X009505Y005720D02*
X009605Y005720D01*
X009941Y005424D02*
X010069Y005424D01*
X009971Y005326D02*
X009938Y005326D01*
X010051Y005152D02*
X010601Y005702D01*
X011101Y005702D01*
X010051Y005152D02*
X010051Y004602D01*
X009832Y004383D01*
X009555Y004383D01*
X010051Y004152D02*
X010601Y004702D01*
X011101Y004702D01*
X010051Y004152D02*
X010051Y003652D01*
X009837Y003438D01*
X009555Y003438D01*
X009269Y003651D02*
X008642Y003651D01*
X008610Y003552D02*
X009189Y003552D01*
X009189Y003454D02*
X008508Y003454D01*
X008642Y003749D02*
X009201Y003749D01*
X009189Y003355D02*
X004228Y003355D01*
X004187Y003256D02*
X009238Y003256D01*
X009249Y003158D02*
X004180Y003158D01*
X004226Y003059D02*
X009189Y003059D01*
X009189Y002961D02*
X008481Y002961D01*
X008602Y002862D02*
X009189Y002862D01*
X009258Y002764D02*
X008640Y002764D01*
X008642Y002665D02*
X009228Y002665D01*
X009189Y002567D02*
X008642Y002567D01*
X008642Y002468D02*
X009189Y002468D01*
X009555Y002493D02*
X010892Y002493D01*
X011101Y002702D01*
X010751Y003702D02*
X010015Y002965D01*
X009555Y002965D01*
X010751Y003702D02*
X011101Y003702D01*
X008605Y005227D02*
X008598Y005227D01*
X008373Y005227D02*
X008335Y005227D01*
X008335Y005326D02*
X008373Y005326D01*
X008373Y005424D02*
X008335Y005424D01*
X008335Y005523D02*
X007901Y005523D01*
X007863Y005523D02*
X007429Y005523D01*
X007428Y005621D02*
X007390Y005621D01*
X007390Y005720D02*
X007428Y005720D01*
X007428Y005819D02*
X007390Y005819D01*
X007196Y005819D02*
X007167Y005819D01*
X007170Y005917D02*
X008617Y005917D01*
X008617Y005819D02*
X008568Y005819D01*
X008373Y005819D02*
X008335Y005819D01*
X008335Y005720D02*
X008373Y005720D01*
X008373Y005621D02*
X008335Y005621D01*
X008141Y005819D02*
X008095Y005819D01*
X007901Y005819D02*
X007863Y005819D01*
X007863Y005720D02*
X007901Y005720D01*
X007901Y005621D02*
X007863Y005621D01*
X007863Y005424D02*
X007901Y005424D01*
X007901Y005326D02*
X007863Y005326D01*
X007863Y005227D02*
X007901Y005227D01*
X007428Y005227D02*
X007390Y005227D01*
X007390Y005326D02*
X007428Y005326D01*
X007428Y005424D02*
X007390Y005424D01*
X007166Y005227D02*
X007158Y005227D01*
X006715Y005227D02*
X006686Y005227D01*
X006243Y005227D02*
X006236Y005227D01*
X006011Y005227D02*
X005973Y005227D01*
X005973Y005326D02*
X006011Y005326D01*
X006011Y005424D02*
X005973Y005424D01*
X005973Y005524D02*
X005973Y005891D01*
X005930Y005891D01*
X005882Y005881D01*
X005836Y005862D01*
X005795Y005835D01*
X005760Y005800D01*
X005745Y005778D01*
X005700Y005824D01*
X005700Y006246D01*
X006055Y006602D01*
X006108Y006602D01*
X006105Y006600D01*
X006064Y006573D01*
X006029Y006538D01*
X006001Y006497D01*
X005983Y006451D01*
X005973Y006403D01*
X005973Y006320D01*
X006242Y006320D01*
X006242Y006283D01*
X005973Y006283D01*
X005973Y006200D01*
X005983Y006152D01*
X006001Y006106D01*
X006029Y006065D01*
X006064Y006030D01*
X006105Y006003D01*
X006150Y005984D01*
X006199Y005974D01*
X006242Y005974D01*
X006242Y006282D01*
X006280Y006282D01*
X006280Y005974D01*
X006323Y005974D01*
X006371Y005984D01*
X006417Y006003D01*
X006458Y006030D01*
X006493Y006065D01*
X006510Y006092D01*
X006608Y005994D01*
X006707Y005994D01*
X006707Y005983D01*
X006707Y005888D01*
X006707Y005793D01*
X006707Y005774D01*
X006701Y005767D01*
X006597Y005871D01*
X006332Y005871D01*
X006239Y005778D01*
X006224Y005800D01*
X006189Y005835D01*
X006148Y005862D01*
X006102Y005881D01*
X006054Y005891D01*
X006011Y005891D01*
X006011Y005524D01*
X005973Y005524D01*
X005973Y005621D02*
X006011Y005621D01*
X006011Y005720D02*
X005973Y005720D01*
X005973Y005819D02*
X006011Y005819D01*
X006205Y005819D02*
X006279Y005819D01*
X006280Y006016D02*
X006242Y006016D01*
X006242Y006114D02*
X006280Y006114D01*
X006280Y006213D02*
X006242Y006213D01*
X006242Y006311D02*
X005765Y006311D01*
X005864Y006410D02*
X005974Y006410D01*
X005962Y006508D02*
X006009Y006508D01*
X005973Y006213D02*
X005700Y006213D01*
X005700Y006114D02*
X005998Y006114D01*
X006086Y006016D02*
X005700Y006016D01*
X005700Y005917D02*
X006707Y005917D01*
X006707Y005819D02*
X006650Y005819D01*
X006587Y006016D02*
X006436Y006016D01*
X006741Y006302D02*
X006937Y006105D01*
X006937Y005888D01*
X007206Y006016D02*
X008617Y006016D01*
X008609Y006114D02*
X008296Y006114D01*
X008005Y006114D02*
X007996Y006114D01*
X007705Y006114D02*
X007348Y006114D01*
X007623Y005819D02*
X007669Y005819D01*
X009118Y006016D02*
X009355Y006016D01*
X009305Y006114D02*
X009184Y006114D01*
X009184Y006213D02*
X009298Y006213D01*
X009298Y006311D02*
X009184Y006311D01*
X009184Y006410D02*
X009298Y006410D01*
X009298Y006508D02*
X009184Y006508D01*
X009576Y006311D02*
X009634Y006311D01*
X009634Y006213D02*
X009576Y006213D01*
X009576Y006114D02*
X009634Y006114D01*
X009634Y006016D02*
X009576Y006016D01*
X006751Y004636D02*
X006651Y004636D01*
X006651Y004537D02*
X006751Y004537D01*
X006751Y004439D02*
X006651Y004439D01*
X006651Y004340D02*
X006751Y004340D01*
X006751Y004242D02*
X006651Y004242D01*
X006651Y004143D02*
X006751Y004143D01*
X006751Y003848D02*
X006651Y003848D01*
X006651Y003749D02*
X006751Y003749D01*
X006751Y003651D02*
X006651Y003651D01*
X006651Y003552D02*
X006751Y003552D01*
X006751Y003454D02*
X006651Y003454D01*
X006310Y003454D02*
X005674Y003454D01*
X005775Y003552D02*
X006209Y003552D01*
X006177Y003651D02*
X005807Y003651D01*
X005807Y003749D02*
X006177Y003749D01*
X006177Y003848D02*
X005807Y003848D01*
X005807Y003946D02*
X006177Y003946D01*
X006177Y004143D02*
X005807Y004143D01*
X005807Y004242D02*
X006177Y004242D01*
X006177Y004340D02*
X005807Y004340D01*
X005807Y004439D02*
X006177Y004439D01*
X006205Y004537D02*
X005779Y004537D01*
X005684Y004636D02*
X006300Y004636D01*
X005748Y005227D02*
X005741Y005227D01*
X005333Y004636D02*
X005234Y004636D01*
X005234Y004537D02*
X005333Y004537D01*
X005333Y004439D02*
X005234Y004439D01*
X005234Y004340D02*
X005333Y004340D01*
X005333Y004242D02*
X005234Y004242D01*
X005234Y003946D02*
X005333Y003946D01*
X005333Y003848D02*
X005234Y003848D01*
X005234Y003749D02*
X005333Y003749D01*
X005333Y003651D02*
X005234Y003651D01*
X005234Y003552D02*
X005333Y003552D01*
X005333Y003454D02*
X005234Y003454D01*
X005234Y002961D02*
X005333Y002961D01*
X005333Y002862D02*
X005234Y002862D01*
X005234Y002764D02*
X005333Y002764D01*
X005333Y002665D02*
X005234Y002665D01*
X005234Y002567D02*
X005333Y002567D01*
X005333Y002271D02*
X005234Y002271D01*
X005234Y002172D02*
X005333Y002172D01*
X005333Y002074D02*
X005234Y002074D01*
X005234Y001975D02*
X005333Y001975D01*
X005333Y001877D02*
X005234Y001877D01*
X005234Y001778D02*
X005333Y001778D01*
X005701Y001778D02*
X006283Y001778D01*
X006200Y001877D02*
X005784Y001877D01*
X005807Y001975D02*
X006177Y001975D01*
X006177Y002074D02*
X005807Y002074D01*
X005807Y002172D02*
X006177Y002172D01*
X006177Y002271D02*
X005807Y002271D01*
X005807Y002468D02*
X006177Y002468D01*
X006177Y002567D02*
X005807Y002567D01*
X005807Y002665D02*
X006177Y002665D01*
X006179Y002764D02*
X005805Y002764D01*
X005768Y002862D02*
X006217Y002862D01*
X006337Y002961D02*
X005647Y002961D01*
X006651Y002961D02*
X006751Y002961D01*
X006751Y002862D02*
X006651Y002862D01*
X006651Y002764D02*
X006751Y002764D01*
X006751Y002665D02*
X006651Y002665D01*
X006651Y002567D02*
X006751Y002567D01*
X006751Y002271D02*
X006651Y002271D01*
X006651Y002172D02*
X006751Y002172D01*
X006751Y002074D02*
X006651Y002074D01*
X006651Y001975D02*
X006751Y001975D01*
X006751Y001877D02*
X006651Y001877D01*
X006651Y001778D02*
X006751Y001778D01*
X007118Y001778D02*
X007701Y001778D01*
X007618Y001877D02*
X007201Y001877D01*
X007225Y001975D02*
X007594Y001975D01*
X007594Y002074D02*
X007225Y002074D01*
X007225Y002172D02*
X007594Y002172D01*
X007594Y002271D02*
X007225Y002271D01*
X007225Y002468D02*
X007594Y002468D01*
X007594Y002567D02*
X007225Y002567D01*
X007225Y002665D02*
X007594Y002665D01*
X007597Y002764D02*
X007222Y002764D01*
X007185Y002862D02*
X007634Y002862D01*
X007755Y002961D02*
X007064Y002961D01*
X008068Y002961D02*
X008168Y002961D01*
X008168Y002862D02*
X008068Y002862D01*
X008068Y002764D02*
X008168Y002764D01*
X008168Y002665D02*
X008068Y002665D01*
X008068Y002567D02*
X008168Y002567D01*
X008168Y002271D02*
X008068Y002271D01*
X008068Y002172D02*
X008168Y002172D01*
X008168Y002074D02*
X008068Y002074D01*
X008068Y001975D02*
X008168Y001975D01*
X008168Y001877D02*
X008068Y001877D01*
X008068Y001778D02*
X008168Y001778D01*
X008118Y001187D02*
X008092Y001187D01*
X008335Y001187D02*
X008373Y001187D01*
X008373Y001088D02*
X008335Y001088D01*
X008335Y000990D02*
X008373Y000990D01*
X008808Y000990D02*
X008846Y000990D01*
X008846Y001088D02*
X008808Y001088D01*
X008808Y001187D02*
X008846Y001187D01*
X008846Y000793D02*
X008808Y000793D01*
X008808Y000694D02*
X008846Y000694D01*
X008846Y000596D02*
X008808Y000596D01*
X008602Y000596D02*
X008579Y000596D01*
X007672Y001187D02*
X007620Y001187D01*
X007199Y001187D02*
X007147Y001187D01*
X006727Y001187D02*
X006675Y001187D01*
X006254Y001187D02*
X006202Y001187D01*
X005782Y001187D02*
X005730Y001187D01*
X005309Y001187D02*
X005258Y001187D01*
X004837Y001187D02*
X004811Y001187D01*
X004594Y000793D02*
X004556Y000793D01*
X004556Y000694D02*
X004594Y000694D01*
X003896Y000694D02*
X003796Y000694D01*
X003796Y000596D02*
X003896Y000596D01*
X003896Y000793D02*
X003796Y000793D01*
X003523Y000596D02*
X002376Y000596D01*
X002376Y000694D02*
X003469Y000694D01*
X004286Y001778D02*
X004866Y001778D01*
X004783Y001877D02*
X004301Y001877D01*
X004301Y001975D02*
X004759Y001975D01*
X004759Y002074D02*
X004301Y002074D01*
X004301Y002172D02*
X004759Y002172D01*
X004759Y002271D02*
X004287Y002271D01*
X003865Y002567D02*
X003827Y002567D01*
X003827Y002665D02*
X003865Y002665D01*
X003865Y002764D02*
X003827Y002764D01*
X003827Y002862D02*
X003865Y002862D01*
X003865Y003457D02*
X003827Y003457D01*
X003827Y003622D01*
X003827Y003891D01*
X003865Y003891D01*
X003865Y003622D01*
X003865Y003457D01*
X003865Y003552D02*
X003827Y003552D01*
X003827Y003651D02*
X003865Y003651D01*
X003865Y003749D02*
X003827Y003749D01*
X003827Y003848D02*
X003865Y003848D01*
X004140Y004143D02*
X004759Y004143D01*
X004759Y004242D02*
X004205Y004242D01*
X004213Y004340D02*
X004759Y004340D01*
X004759Y004439D02*
X004213Y004439D01*
X004191Y004537D02*
X004788Y004537D01*
X004883Y004636D02*
X004126Y004636D01*
X003843Y004852D02*
X003351Y004852D01*
X003328Y004850D01*
X003305Y004845D01*
X003283Y004836D01*
X003263Y004823D01*
X003245Y004808D01*
X003230Y004790D01*
X003217Y004770D01*
X003208Y004748D01*
X003203Y004725D01*
X003201Y004702D01*
X003201Y004552D01*
X003203Y004528D01*
X003208Y004504D01*
X003216Y004482D01*
X003228Y004461D01*
X003242Y004441D01*
X003259Y004424D01*
X003279Y004410D01*
X003300Y004398D01*
X003322Y004390D01*
X003346Y004385D01*
X003370Y004383D01*
X003846Y004383D01*
X003843Y004851D02*
X003845Y004852D01*
X003846Y004853D01*
X003847Y004855D01*
X005232Y005819D02*
X005335Y005819D01*
X005340Y005917D02*
X005231Y005917D01*
X005231Y006016D02*
X005340Y006016D01*
X005340Y006114D02*
X005231Y006114D01*
X005231Y006140D02*
X005231Y006140D01*
X005189Y006213D02*
X005340Y006213D01*
X005340Y006311D02*
X005111Y006311D01*
X005142Y006293D02*
X005142Y006293D01*
X005142Y006293D01*
X004989Y006381D02*
X004989Y006381D01*
X004901Y006382D02*
X004901Y006382D01*
X004619Y006382D02*
X004619Y006382D01*
X004497Y006311D02*
X003601Y006311D01*
X003601Y006410D02*
X005354Y006410D01*
X005445Y006500D02*
X005445Y006500D01*
X005453Y006508D02*
X003601Y006508D01*
X003601Y006213D02*
X004427Y006213D01*
X004395Y006114D02*
X003601Y006114D01*
X003601Y006016D02*
X004395Y006016D01*
X005705Y005819D02*
X005779Y005819D01*
D19*
X008827Y005505D02*
X008827Y006352D01*
X008896Y006352D01*
X009555Y006352D02*
X009555Y005505D01*
X009555Y006352D02*
X009605Y006352D01*
X003846Y002020D02*
X003846Y002002D01*
X003048Y002002D01*
X003048Y002027D01*
X003048Y001648D01*
X003101Y001648D01*
X002654Y001648D02*
X002654Y002027D01*
X002654Y002002D01*
X002401Y002002D01*
X002601Y001648D02*
X002654Y001648D01*
D20*
X002471Y001122D03*
X004451Y001702D03*
X005951Y001702D03*
X007451Y001702D03*
X008951Y001702D03*
X008951Y003202D03*
X007451Y003202D03*
X005951Y003202D03*
X004451Y003202D03*
X004451Y004702D03*
X005951Y004702D03*
X007451Y004702D03*
X008951Y004702D03*
X009226Y005977D03*
X008501Y006002D03*
X008151Y006352D03*
X007851Y006352D03*
X007651Y006002D03*
X005851Y006252D03*
X009976Y005977D03*
D21*
X008896Y006352D02*
X008151Y006352D01*
X007401Y006352D01*
X007361Y006350D01*
X007320Y006345D01*
X007281Y006336D01*
X007242Y006324D01*
X007205Y006309D01*
X007169Y006290D01*
X007135Y006268D01*
X007103Y006243D01*
X007073Y006216D01*
X007046Y006186D01*
X007021Y006154D01*
X006999Y006120D01*
X006980Y006084D01*
X006965Y006047D01*
X006953Y006008D01*
X006944Y005969D01*
X006939Y005928D01*
X006937Y005888D01*
X006937Y005505D01*
X002601Y001255D02*
X002471Y001155D01*
X002471Y001122D01*
X009555Y000898D02*
X010904Y000898D01*
X011101Y000702D01*
M02*
