G75*
G70*
%OFA0B0*%
%FSLAX24Y24*%
%IPPOS*%
%LPD*%
%AMOC8*
5,1,8,0,0,1.08239X$1,22.5*
%
%ADD10C,0.0201*%
%ADD11C,0.0202*%
%ADD12C,0.0198*%
%ADD13C,0.0197*%
%ADD14C,0.0202*%
D10*
X003982Y001510D02*
X003982Y001586D01*
X003982Y001510D02*
X003710Y001510D01*
X003710Y001586D01*
X003982Y001586D01*
X003982Y001982D02*
X003982Y002058D01*
X003982Y001982D02*
X003710Y001982D01*
X003710Y002058D01*
X003982Y002058D01*
X003982Y002455D02*
X003982Y002531D01*
X003982Y002455D02*
X003710Y002455D01*
X003710Y002531D01*
X003982Y002531D01*
X003982Y002927D02*
X003982Y003003D01*
X003982Y002927D02*
X003710Y002927D01*
X003710Y003003D01*
X003982Y003003D01*
X003982Y003400D02*
X003982Y003476D01*
X003982Y003400D02*
X003710Y003400D01*
X003710Y003476D01*
X003982Y003476D01*
X003982Y003872D02*
X003982Y003948D01*
X003982Y003872D02*
X003710Y003872D01*
X003710Y003948D01*
X003982Y003948D01*
X003982Y004345D02*
X003982Y004421D01*
X003982Y004345D02*
X003710Y004345D01*
X003710Y004421D01*
X003982Y004421D01*
X003982Y004817D02*
X003982Y004893D01*
X003982Y004817D02*
X003710Y004817D01*
X003710Y004893D01*
X003982Y004893D01*
X004537Y005369D02*
X004613Y005369D01*
X004537Y005369D02*
X004537Y005641D01*
X004613Y005641D01*
X004613Y005369D01*
X004613Y005569D02*
X004537Y005569D01*
X005009Y005369D02*
X005085Y005369D01*
X005009Y005369D02*
X005009Y005641D01*
X005085Y005641D01*
X005085Y005369D01*
X005085Y005569D02*
X005009Y005569D01*
X005482Y005369D02*
X005558Y005369D01*
X005482Y005369D02*
X005482Y005641D01*
X005558Y005641D01*
X005558Y005369D01*
X005558Y005569D02*
X005482Y005569D01*
X005954Y005369D02*
X006030Y005369D01*
X005954Y005369D02*
X005954Y005641D01*
X006030Y005641D01*
X006030Y005369D01*
X006030Y005569D02*
X005954Y005569D01*
X006427Y005369D02*
X006503Y005369D01*
X006427Y005369D02*
X006427Y005641D01*
X006503Y005641D01*
X006503Y005369D01*
X006503Y005569D02*
X006427Y005569D01*
X006899Y005369D02*
X006975Y005369D01*
X006899Y005369D02*
X006899Y005641D01*
X006975Y005641D01*
X006975Y005369D01*
X006975Y005569D02*
X006899Y005569D01*
X007371Y005369D02*
X007447Y005369D01*
X007371Y005369D02*
X007371Y005641D01*
X007447Y005641D01*
X007447Y005369D01*
X007447Y005569D02*
X007371Y005569D01*
X007844Y005369D02*
X007920Y005369D01*
X007844Y005369D02*
X007844Y005641D01*
X007920Y005641D01*
X007920Y005369D01*
X007920Y005569D02*
X007844Y005569D01*
X008316Y005369D02*
X008392Y005369D01*
X008316Y005369D02*
X008316Y005641D01*
X008392Y005641D01*
X008392Y005369D01*
X008392Y005569D02*
X008316Y005569D01*
X008789Y005369D02*
X008865Y005369D01*
X008789Y005369D02*
X008789Y005641D01*
X008865Y005641D01*
X008865Y005369D01*
X008865Y005569D02*
X008789Y005569D01*
X009419Y004893D02*
X009419Y004817D01*
X009419Y004893D02*
X009691Y004893D01*
X009691Y004817D01*
X009419Y004817D01*
X009419Y004421D02*
X009419Y004345D01*
X009419Y004421D02*
X009691Y004421D01*
X009691Y004345D01*
X009419Y004345D01*
X009419Y003948D02*
X009419Y003872D01*
X009419Y003948D02*
X009691Y003948D01*
X009691Y003872D01*
X009419Y003872D01*
X009419Y003476D02*
X009419Y003400D01*
X009419Y003476D02*
X009691Y003476D01*
X009691Y003400D01*
X009419Y003400D01*
X009419Y003003D02*
X009419Y002927D01*
X009419Y003003D02*
X009691Y003003D01*
X009691Y002927D01*
X009419Y002927D01*
X009419Y002531D02*
X009419Y002455D01*
X009419Y002531D02*
X009691Y002531D01*
X009691Y002455D01*
X009419Y002455D01*
X009419Y002058D02*
X009419Y001982D01*
X009419Y002058D02*
X009691Y002058D01*
X009691Y001982D01*
X009419Y001982D01*
X009419Y001586D02*
X009419Y001510D01*
X009419Y001586D02*
X009691Y001586D01*
X009691Y001510D01*
X009419Y001510D01*
X008865Y001034D02*
X008789Y001034D01*
X008865Y001034D02*
X008865Y000762D01*
X008789Y000762D01*
X008789Y001034D01*
X008789Y000962D02*
X008865Y000962D01*
X008392Y001034D02*
X008316Y001034D01*
X008392Y001034D02*
X008392Y000762D01*
X008316Y000762D01*
X008316Y001034D01*
X008316Y000962D02*
X008392Y000962D01*
X007920Y001034D02*
X007844Y001034D01*
X007920Y001034D02*
X007920Y000762D01*
X007844Y000762D01*
X007844Y001034D01*
X007844Y000962D02*
X007920Y000962D01*
X007447Y001034D02*
X007371Y001034D01*
X007447Y001034D02*
X007447Y000762D01*
X007371Y000762D01*
X007371Y001034D01*
X007371Y000962D02*
X007447Y000962D01*
X006975Y001034D02*
X006899Y001034D01*
X006975Y001034D02*
X006975Y000762D01*
X006899Y000762D01*
X006899Y001034D01*
X006899Y000962D02*
X006975Y000962D01*
X006503Y001034D02*
X006427Y001034D01*
X006503Y001034D02*
X006503Y000762D01*
X006427Y000762D01*
X006427Y001034D01*
X006427Y000962D02*
X006503Y000962D01*
X006030Y001034D02*
X005954Y001034D01*
X006030Y001034D02*
X006030Y000762D01*
X005954Y000762D01*
X005954Y001034D01*
X005954Y000962D02*
X006030Y000962D01*
X005558Y001034D02*
X005482Y001034D01*
X005558Y001034D02*
X005558Y000762D01*
X005482Y000762D01*
X005482Y001034D01*
X005482Y000962D02*
X005558Y000962D01*
X005085Y001034D02*
X005009Y001034D01*
X005085Y001034D02*
X005085Y000762D01*
X005009Y000762D01*
X005009Y001034D01*
X005009Y000962D02*
X005085Y000962D01*
X004613Y001034D02*
X004537Y001034D01*
X004613Y001034D02*
X004613Y000762D01*
X004537Y000762D01*
X004537Y001034D01*
X004537Y000962D02*
X004613Y000962D01*
X006223Y006225D02*
X006299Y006225D01*
X006223Y006225D02*
X006223Y006379D01*
X006299Y006379D01*
X006299Y006225D01*
X006703Y006225D02*
X006779Y006225D01*
X006703Y006225D02*
X006703Y006379D01*
X006779Y006379D01*
X006779Y006225D01*
D11*
X006974Y004419D02*
X006974Y003677D01*
X006428Y003677D01*
X006428Y004419D01*
X006974Y004419D01*
X006974Y003878D02*
X006428Y003878D01*
X006428Y004079D02*
X006974Y004079D01*
X006974Y004280D02*
X006428Y004280D01*
X005556Y004419D02*
X005556Y003677D01*
X005010Y003677D01*
X005010Y004419D01*
X005556Y004419D01*
X005556Y003878D02*
X005010Y003878D01*
X005010Y004079D02*
X005556Y004079D01*
X005556Y004280D02*
X005010Y004280D01*
X005556Y002726D02*
X005556Y001984D01*
X005010Y001984D01*
X005010Y002726D01*
X005556Y002726D01*
X005556Y002185D02*
X005010Y002185D01*
X005010Y002386D02*
X005556Y002386D01*
X005556Y002587D02*
X005010Y002587D01*
X006974Y002726D02*
X006974Y001984D01*
X006428Y001984D01*
X006428Y002726D01*
X006974Y002726D01*
X006974Y002185D02*
X006428Y002185D01*
X006428Y002386D02*
X006974Y002386D01*
X006974Y002587D02*
X006428Y002587D01*
X008391Y002726D02*
X008391Y001984D01*
X007845Y001984D01*
X007845Y002726D01*
X008391Y002726D01*
X008391Y002185D02*
X007845Y002185D01*
X007845Y002386D02*
X008391Y002386D01*
X008391Y002587D02*
X007845Y002587D01*
X008391Y003677D02*
X008391Y004419D01*
X008391Y003677D02*
X007845Y003677D01*
X007845Y004419D01*
X008391Y004419D01*
X008391Y003878D02*
X007845Y003878D01*
X007845Y004079D02*
X008391Y004079D01*
X008391Y004280D02*
X007845Y004280D01*
D12*
X009692Y005368D02*
X009692Y005642D01*
X009692Y005368D02*
X009418Y005368D01*
X009418Y005642D01*
X009692Y005642D01*
X009692Y005565D02*
X009418Y005565D01*
X003983Y005642D02*
X003983Y005368D01*
X003709Y005368D01*
X003709Y005642D01*
X003983Y005642D01*
X003983Y005565D02*
X003709Y005565D01*
X003983Y001035D02*
X003983Y000761D01*
X003709Y000761D01*
X003709Y001035D01*
X003983Y001035D01*
X003983Y000958D02*
X003709Y000958D01*
X009692Y001035D02*
X009692Y000761D01*
X009418Y000761D01*
X009418Y001035D01*
X009692Y001035D01*
X009692Y000958D02*
X009418Y000958D01*
D13*
X002561Y001255D02*
X002561Y001255D01*
X002641Y001255D01*
X002641Y001255D01*
X002561Y001255D01*
X002561Y001648D02*
X002561Y001648D01*
X002641Y001648D01*
X002641Y001648D01*
X002561Y001648D01*
X002654Y001987D02*
X002654Y001987D01*
X002654Y002067D01*
X002654Y002067D01*
X002654Y001987D01*
X003048Y001987D02*
X003048Y001987D01*
X003048Y002067D01*
X003048Y002067D01*
X003048Y001987D01*
X003061Y001648D02*
X003061Y001648D01*
X003141Y001648D01*
X003141Y001648D01*
X003061Y001648D01*
X003061Y001255D02*
X003061Y001255D01*
X003141Y001255D01*
X003141Y001255D01*
X003061Y001255D01*
D14*
X008840Y006526D02*
X008952Y006526D01*
X008952Y006178D01*
X008840Y006178D01*
X008840Y006526D01*
X008840Y006379D02*
X008952Y006379D01*
X009549Y006526D02*
X009661Y006526D01*
X009661Y006178D01*
X009549Y006178D01*
X009549Y006526D01*
X009549Y006379D02*
X009661Y006379D01*
M02*
