G75*
G70*
%OFA0B0*%
%FSLAX24Y24*%
%IPPOS*%
%LPD*%
%AMOC8*
5,1,8,0,0,1.08239X$1,22.5*
%
%ADD10C,0.0050*%
%ADD11C,0.0110*%
%ADD12C,0.0100*%
D10*
X008351Y003402D02*
X008551Y003302D01*
X008651Y003152D01*
X008651Y002952D01*
X008601Y002852D01*
X008751Y002852D01*
X008951Y002902D01*
X009101Y003052D01*
X009201Y003202D01*
X009301Y003252D01*
X009401Y003202D01*
X009501Y003252D01*
X009501Y003452D01*
X009701Y003602D01*
X009701Y003652D01*
X009301Y003652D01*
X009301Y004152D01*
X009026Y004152D01*
X009026Y003902D01*
X008976Y003902D01*
X009001Y003802D01*
X009151Y003802D01*
X009201Y003652D01*
X009076Y003652D01*
X009176Y003302D01*
X009126Y003202D01*
X009001Y003152D01*
X008751Y003152D01*
X008701Y003302D01*
X008801Y003302D01*
X008826Y003352D01*
X008726Y003652D01*
X008651Y003652D01*
X008601Y003802D01*
X008676Y003802D01*
X008651Y003902D01*
X008501Y003902D01*
X008451Y003852D01*
X008451Y003652D01*
X008351Y003602D01*
X008351Y003402D01*
X008351Y003405D02*
X008808Y003405D01*
X008824Y003357D02*
X008440Y003357D01*
X008537Y003308D02*
X008804Y003308D01*
X008715Y003260D02*
X008579Y003260D01*
X008611Y003211D02*
X008731Y003211D01*
X008747Y003163D02*
X008643Y003163D01*
X008651Y003114D02*
X009143Y003114D01*
X009175Y003163D02*
X009029Y003163D01*
X009131Y003211D02*
X009220Y003211D01*
X009155Y003260D02*
X009501Y003260D01*
X009501Y003308D02*
X009174Y003308D01*
X009160Y003357D02*
X009501Y003357D01*
X009501Y003405D02*
X009146Y003405D01*
X009132Y003454D02*
X009504Y003454D01*
X009569Y003503D02*
X009118Y003503D01*
X009104Y003551D02*
X009633Y003551D01*
X009698Y003600D02*
X009091Y003600D01*
X009077Y003648D02*
X009701Y003648D01*
X009301Y003697D02*
X009186Y003697D01*
X009170Y003745D02*
X009301Y003745D01*
X009301Y003794D02*
X009153Y003794D01*
X009301Y003842D02*
X008991Y003842D01*
X008978Y003891D02*
X009301Y003891D01*
X009301Y003939D02*
X009026Y003939D01*
X009026Y003988D02*
X009301Y003988D01*
X009301Y004036D02*
X009026Y004036D01*
X009026Y004085D02*
X009301Y004085D01*
X009301Y004134D02*
X009026Y004134D01*
X008866Y003981D02*
X008855Y003992D01*
X008841Y003999D01*
X008826Y004002D01*
X008810Y003999D01*
X008796Y003992D01*
X008785Y003981D01*
X008778Y003967D01*
X008776Y003952D01*
X008778Y003936D01*
X008785Y003922D01*
X008796Y003911D01*
X008810Y003904D01*
X008826Y003902D01*
X008841Y003904D01*
X008855Y003911D01*
X008866Y003922D01*
X008873Y003936D01*
X008876Y003952D01*
X008873Y003967D01*
X008866Y003981D01*
X008859Y003988D02*
X008792Y003988D01*
X008778Y003939D02*
X008874Y003939D01*
X008666Y003842D02*
X008451Y003842D01*
X008451Y003794D02*
X008603Y003794D01*
X008620Y003745D02*
X008451Y003745D01*
X008451Y003697D02*
X008636Y003697D01*
X008727Y003648D02*
X008444Y003648D01*
X008351Y003600D02*
X008743Y003600D01*
X008759Y003551D02*
X008351Y003551D01*
X008351Y003503D02*
X008775Y003503D01*
X008792Y003454D02*
X008351Y003454D01*
X008861Y003600D02*
X008961Y003600D01*
X008947Y003648D02*
X008847Y003648D01*
X008832Y003697D02*
X008932Y003697D01*
X008918Y003745D02*
X008818Y003745D01*
X008803Y003794D02*
X008903Y003794D01*
X008901Y003802D02*
X009051Y003302D01*
X008951Y003302D01*
X008801Y003802D01*
X008901Y003802D01*
X008876Y003551D02*
X008976Y003551D01*
X008990Y003503D02*
X008891Y003503D01*
X008905Y003454D02*
X009005Y003454D01*
X009020Y003405D02*
X008920Y003405D01*
X008934Y003357D02*
X009034Y003357D01*
X009049Y003308D02*
X008949Y003308D01*
X009110Y003066D02*
X008651Y003066D01*
X008651Y003017D02*
X009066Y003017D01*
X009018Y002969D02*
X008651Y002969D01*
X008635Y002920D02*
X008969Y002920D01*
X008830Y002871D02*
X008611Y002871D01*
X009381Y003211D02*
X009420Y003211D01*
X010226Y003265D02*
X010226Y004002D01*
X010326Y003977D02*
X010326Y003893D01*
X010326Y003935D02*
X010576Y003935D01*
X010576Y003977D02*
X010576Y003893D01*
X010576Y003792D02*
X010326Y003792D01*
X010576Y003626D01*
X010326Y003626D01*
X010326Y003516D02*
X010326Y003349D01*
X010326Y003433D02*
X010576Y003433D01*
X010534Y002877D02*
X010576Y002835D01*
X010576Y002751D01*
X010534Y002710D01*
X010492Y002710D01*
X010451Y002751D01*
X010451Y002835D01*
X010409Y002877D01*
X010367Y002877D01*
X010326Y002835D01*
X010326Y002751D01*
X010367Y002710D01*
X010367Y002600D02*
X010534Y002600D01*
X010576Y002559D01*
X010576Y002475D01*
X010534Y002434D01*
X010367Y002434D01*
X010326Y002475D01*
X010326Y002559D01*
X010367Y002600D01*
X010226Y001952D02*
X010226Y001399D01*
X010326Y001525D02*
X010367Y001484D01*
X010326Y001525D02*
X010326Y001609D01*
X010367Y001650D01*
X010409Y001650D01*
X010451Y001609D01*
X010451Y001525D01*
X010492Y001484D01*
X010534Y001484D01*
X010576Y001525D01*
X010576Y001609D01*
X010534Y001650D01*
X010534Y001760D02*
X010576Y001801D01*
X010576Y001885D01*
X010534Y001927D01*
X010367Y001927D01*
X010326Y001885D01*
X010326Y001801D01*
X010367Y001760D01*
X010367Y001077D02*
X010534Y001077D01*
X010576Y001035D01*
X010576Y000951D01*
X010534Y000910D01*
X010451Y000910D01*
X010451Y000993D01*
X010367Y000910D02*
X010326Y000951D01*
X010326Y001035D01*
X010367Y001077D01*
X010326Y000800D02*
X010576Y000634D01*
X010326Y000634D01*
X010326Y000524D02*
X010326Y000399D01*
X010367Y000357D01*
X010534Y000357D01*
X010576Y000399D01*
X010576Y000524D01*
X010326Y000524D01*
X010326Y000800D02*
X010576Y000800D01*
X008653Y003891D02*
X008490Y003891D01*
X010326Y004517D02*
X010326Y004600D01*
X010326Y004559D02*
X010576Y004559D01*
X010576Y004600D02*
X010576Y004517D01*
X010534Y004710D02*
X010576Y004751D01*
X010576Y004835D01*
X010534Y004877D01*
X010451Y004835D02*
X010451Y004751D01*
X010492Y004710D01*
X010534Y004710D01*
X010367Y004710D02*
X010326Y004751D01*
X010326Y004835D01*
X010367Y004877D01*
X010409Y004877D01*
X010451Y004835D01*
X010576Y005207D02*
X010451Y005332D01*
X010492Y005374D02*
X010326Y005207D01*
X010326Y005374D02*
X010576Y005374D01*
X010534Y005484D02*
X010576Y005525D01*
X010576Y005609D01*
X010534Y005650D01*
X010367Y005650D01*
X010326Y005609D01*
X010326Y005525D01*
X010367Y005484D01*
X010367Y005760D02*
X010326Y005801D01*
X010326Y005885D01*
X010367Y005927D01*
X010409Y005927D01*
X010451Y005885D01*
X010451Y005801D01*
X010492Y005760D01*
X010534Y005760D01*
X010576Y005801D01*
X010576Y005885D01*
X010534Y005927D01*
X010576Y006334D02*
X010326Y006334D01*
X010326Y006500D02*
X010576Y006334D01*
X010576Y006500D02*
X010326Y006500D01*
X010367Y006610D02*
X010326Y006651D01*
X010326Y006735D01*
X010367Y006777D01*
X010534Y006777D01*
X010576Y006735D01*
X010576Y006651D01*
X010534Y006610D01*
X010367Y006610D01*
X010326Y007119D02*
X010492Y007119D01*
X010576Y007203D01*
X010492Y007286D01*
X010326Y007286D01*
X010367Y007395D02*
X010409Y007395D01*
X010451Y007437D01*
X010492Y007395D01*
X010534Y007395D01*
X010576Y007437D01*
X010576Y007521D01*
X010534Y007562D01*
X010534Y007659D02*
X010576Y007659D01*
X010576Y007700D01*
X010534Y007700D01*
X010534Y007659D01*
X010367Y007562D02*
X010326Y007521D01*
X010326Y007437D01*
X010367Y007395D01*
X010451Y007437D02*
X010451Y007479D01*
X010492Y007810D02*
X010534Y007810D01*
X010576Y007851D01*
X010576Y007935D01*
X010534Y007977D01*
X010451Y007893D02*
X010451Y007851D01*
X010492Y007810D01*
X010451Y007851D02*
X010409Y007810D01*
X010367Y007810D01*
X010326Y007851D01*
X010326Y007935D01*
X010367Y007977D01*
D11*
X007947Y003847D02*
X007751Y003847D01*
X007652Y003749D01*
X007401Y003749D02*
X007401Y003355D01*
X007303Y003257D01*
X007106Y003257D01*
X007008Y003355D01*
X006757Y003355D02*
X006658Y003257D01*
X006461Y003257D01*
X006363Y003355D01*
X006363Y003453D01*
X006461Y003552D01*
X006560Y003552D01*
X006461Y003552D02*
X006363Y003650D01*
X006363Y003749D01*
X006461Y003847D01*
X006658Y003847D01*
X006757Y003749D01*
X007008Y003749D02*
X007106Y003847D01*
X007303Y003847D01*
X007401Y003749D01*
X007947Y003847D02*
X008046Y003749D01*
X008046Y003355D01*
X007947Y003257D01*
X007751Y003257D01*
X007652Y003355D01*
X006112Y003355D02*
X005719Y003749D01*
X005719Y003355D01*
X005817Y003257D01*
X006014Y003257D01*
X006112Y003355D01*
X006112Y003749D01*
X006014Y003847D01*
X005817Y003847D01*
X005719Y003749D01*
X005468Y003749D02*
X005369Y003847D01*
X005172Y003847D01*
X005074Y003749D01*
X005468Y003355D01*
X005369Y003257D01*
X005172Y003257D01*
X005074Y003355D01*
X005074Y003749D01*
X004823Y003749D02*
X004725Y003847D01*
X004528Y003847D01*
X004429Y003749D01*
X004823Y003355D01*
X004725Y003257D01*
X004528Y003257D01*
X004429Y003355D01*
X004429Y003749D01*
X004823Y003749D02*
X004823Y003355D01*
X005468Y003355D02*
X005468Y003749D01*
X003534Y003847D02*
X003534Y003257D01*
X003337Y003453D01*
X003140Y003257D01*
X003140Y003847D01*
X002890Y003650D02*
X002791Y003650D01*
X002791Y003257D01*
X002693Y003257D02*
X002890Y003257D01*
X002460Y003257D02*
X002460Y003847D01*
X002066Y003847D01*
X001815Y003650D02*
X001717Y003650D01*
X001717Y003257D01*
X001815Y003257D02*
X001619Y003257D01*
X002263Y003552D02*
X002460Y003552D01*
X002791Y003847D02*
X002791Y003945D01*
X001717Y003945D02*
X001717Y003847D01*
D12*
X001601Y003002D02*
X008051Y003002D01*
M02*
