G75*
G70*
%OFA0B0*%
%FSLAX24Y24*%
%IPPOS*%
%LPD*%
%AMOC8*
5,1,8,0,0,1.08239X$1,22.5*
%
%ADD10C,0.0050*%
%ADD11C,0.0100*%
%ADD12C,0.0110*%
D10*
X002476Y000524D02*
X002726Y000524D01*
X002726Y000691D01*
X002726Y000800D02*
X002559Y000967D01*
X002517Y000967D01*
X002476Y000925D01*
X002476Y000842D01*
X002517Y000800D01*
X002726Y000800D02*
X002726Y000967D01*
X002976Y000884D02*
X003226Y000884D01*
X003226Y000967D02*
X003226Y000800D01*
X003226Y000691D02*
X003226Y000524D01*
X002976Y000524D01*
X003059Y000800D02*
X002976Y000884D01*
X003010Y002352D02*
X003010Y002602D01*
X002927Y002518D01*
X002818Y002560D02*
X002776Y002602D01*
X002692Y002602D01*
X002651Y002560D01*
X002651Y002393D01*
X002692Y002352D01*
X002776Y002352D01*
X002818Y002393D01*
X002927Y002352D02*
X003094Y002352D01*
X008326Y006166D02*
X008367Y006124D01*
X008534Y006124D01*
X008576Y006166D01*
X008576Y006249D01*
X008534Y006291D01*
X008367Y006291D02*
X008326Y006249D01*
X008326Y006166D01*
X008367Y006400D02*
X008326Y006442D01*
X008326Y006525D01*
X008367Y006567D01*
X008409Y006567D01*
X008576Y006400D01*
X008576Y006567D01*
X010326Y006603D02*
X010576Y006770D01*
X010326Y006770D01*
X010326Y006603D02*
X010576Y006603D01*
X010534Y006493D02*
X010367Y006493D01*
X010326Y006452D01*
X010326Y006368D01*
X010367Y006327D01*
X010534Y006327D01*
X010576Y006368D01*
X010576Y006452D01*
X010534Y006493D01*
X010576Y005946D02*
X010451Y005821D01*
X010492Y005779D02*
X010326Y005946D01*
X010326Y005779D02*
X010576Y005779D01*
X010534Y005670D02*
X010576Y005628D01*
X010576Y005544D01*
X010534Y005503D01*
X010367Y005503D01*
X010326Y005544D01*
X010326Y005628D01*
X010367Y005670D01*
X010367Y005393D02*
X010326Y005352D01*
X010326Y005268D01*
X010367Y005227D01*
X010409Y005227D01*
X010451Y005268D01*
X010451Y005352D01*
X010492Y005393D01*
X010534Y005393D01*
X010576Y005352D01*
X010576Y005268D01*
X010534Y005227D01*
X010576Y004886D02*
X010576Y004803D01*
X010576Y004844D02*
X010326Y004844D01*
X010326Y004803D02*
X010326Y004886D01*
X010367Y004693D02*
X010326Y004652D01*
X010326Y004568D01*
X010367Y004527D01*
X010409Y004527D01*
X010451Y004568D01*
X010451Y004652D01*
X010492Y004693D01*
X010534Y004693D01*
X010576Y004652D01*
X010576Y004568D01*
X010534Y004527D01*
X010226Y004038D02*
X010226Y003302D01*
X010326Y003327D02*
X010326Y003410D01*
X010326Y003368D02*
X010576Y003368D01*
X010576Y003327D02*
X010576Y003410D01*
X010576Y003511D02*
X010326Y003511D01*
X010576Y003677D01*
X010326Y003677D01*
X010326Y003787D02*
X010326Y003954D01*
X010326Y003870D02*
X010576Y003870D01*
X010534Y002870D02*
X010367Y002870D01*
X010326Y002828D01*
X010326Y002744D01*
X010367Y002703D01*
X010534Y002703D01*
X010576Y002744D01*
X010576Y002828D01*
X010534Y002870D01*
X010534Y002593D02*
X010576Y002552D01*
X010576Y002468D01*
X010534Y002427D01*
X010451Y002468D02*
X010451Y002552D01*
X010492Y002593D01*
X010534Y002593D01*
X010367Y002593D02*
X010326Y002552D01*
X010326Y002468D01*
X010367Y002427D01*
X010409Y002427D01*
X010451Y002468D01*
X010226Y001954D02*
X010226Y001402D01*
X010326Y001468D02*
X010367Y001427D01*
X010534Y001427D01*
X010576Y001468D01*
X010576Y001552D01*
X010534Y001593D01*
X010534Y001703D02*
X010576Y001744D01*
X010576Y001828D01*
X010534Y001870D01*
X010492Y001870D01*
X010451Y001828D01*
X010451Y001744D01*
X010409Y001703D01*
X010367Y001703D01*
X010326Y001744D01*
X010326Y001828D01*
X010367Y001870D01*
X010367Y001593D02*
X010326Y001552D01*
X010326Y001468D01*
X010367Y001046D02*
X010326Y001004D01*
X010326Y000879D01*
X010576Y000879D01*
X010576Y001004D01*
X010534Y001046D01*
X010367Y001046D01*
X010326Y000770D02*
X010576Y000770D01*
X010326Y000603D01*
X010576Y000603D01*
X010534Y000493D02*
X010451Y000493D01*
X010451Y000410D01*
X010534Y000493D02*
X010576Y000452D01*
X010576Y000368D01*
X010534Y000327D01*
X010367Y000327D01*
X010326Y000368D01*
X010326Y000452D01*
X010367Y000493D01*
X005677Y006152D02*
X005594Y006152D01*
X005552Y006193D01*
X005443Y006193D02*
X005401Y006152D01*
X005317Y006152D01*
X005276Y006193D01*
X005276Y006360D01*
X005317Y006402D01*
X005401Y006402D01*
X005443Y006360D01*
X005552Y006360D02*
X005594Y006402D01*
X005677Y006402D01*
X005719Y006360D01*
X005719Y006318D01*
X005677Y006277D01*
X005719Y006235D01*
X005719Y006193D01*
X005677Y006152D01*
X005677Y006277D02*
X005635Y006277D01*
X003851Y007152D02*
X003651Y007052D01*
X003551Y006902D01*
X003551Y006702D01*
X003601Y006602D01*
X003451Y006602D01*
X003251Y006652D01*
X003101Y006802D01*
X003001Y006952D01*
X002901Y007002D01*
X002801Y006952D01*
X002701Y007002D01*
X002701Y007202D01*
X002501Y007352D01*
X002501Y007402D01*
X002901Y007402D01*
X002901Y007902D01*
X003176Y007902D01*
X003176Y007652D01*
X003226Y007652D01*
X003201Y007552D01*
X003051Y007552D01*
X003001Y007402D01*
X003126Y007402D01*
X003026Y007052D01*
X003076Y006952D01*
X003201Y006902D01*
X003451Y006902D01*
X003501Y007052D01*
X003401Y007052D01*
X003376Y007102D01*
X003476Y007402D01*
X003551Y007402D01*
X003601Y007552D01*
X003526Y007552D01*
X003551Y007652D01*
X003701Y007652D01*
X003751Y007602D01*
X003751Y007402D01*
X003851Y007352D01*
X003851Y007152D01*
X003834Y007143D02*
X003390Y007143D01*
X003379Y007095D02*
X003737Y007095D01*
X003647Y007046D02*
X003499Y007046D01*
X003483Y006998D02*
X003615Y006998D01*
X003582Y006949D02*
X003467Y006949D01*
X003551Y006901D02*
X003035Y006901D01*
X003002Y006949D02*
X003082Y006949D01*
X003053Y006998D02*
X002909Y006998D01*
X002893Y006998D02*
X002709Y006998D01*
X002701Y007046D02*
X003028Y007046D01*
X003038Y007095D02*
X002701Y007095D01*
X002701Y007143D02*
X003052Y007143D01*
X003066Y007192D02*
X002701Y007192D01*
X002649Y007240D02*
X003080Y007240D01*
X003094Y007289D02*
X002584Y007289D01*
X002520Y007337D02*
X003107Y007337D01*
X003121Y007386D02*
X002501Y007386D01*
X002901Y007435D02*
X003012Y007435D01*
X003028Y007483D02*
X002901Y007483D01*
X002901Y007532D02*
X003044Y007532D01*
X002901Y007580D02*
X003208Y007580D01*
X003220Y007629D02*
X002901Y007629D01*
X002901Y007677D02*
X003176Y007677D01*
X003176Y007726D02*
X002901Y007726D01*
X002901Y007774D02*
X003176Y007774D01*
X003176Y007823D02*
X002901Y007823D01*
X002901Y007871D02*
X003176Y007871D01*
X003335Y007731D02*
X003346Y007742D01*
X003360Y007749D01*
X003376Y007752D01*
X003391Y007749D01*
X003405Y007742D01*
X003416Y007731D01*
X003423Y007717D01*
X003426Y007702D01*
X003423Y007686D01*
X003416Y007672D01*
X003405Y007661D01*
X003391Y007654D01*
X003376Y007652D01*
X003360Y007654D01*
X003346Y007661D01*
X003335Y007672D01*
X003328Y007686D01*
X003326Y007702D01*
X003328Y007717D01*
X003335Y007731D01*
X003333Y007726D02*
X003419Y007726D01*
X003419Y007677D02*
X003333Y007677D01*
X003301Y007552D02*
X003151Y007052D01*
X003251Y007052D01*
X003401Y007552D01*
X003301Y007552D01*
X003295Y007532D02*
X003395Y007532D01*
X003380Y007483D02*
X003280Y007483D01*
X003266Y007435D02*
X003366Y007435D01*
X003351Y007386D02*
X003251Y007386D01*
X003237Y007337D02*
X003337Y007337D01*
X003322Y007289D02*
X003222Y007289D01*
X003207Y007240D02*
X003307Y007240D01*
X003293Y007192D02*
X003193Y007192D01*
X003178Y007143D02*
X003278Y007143D01*
X003264Y007095D02*
X003164Y007095D01*
X003406Y007192D02*
X003851Y007192D01*
X003851Y007240D02*
X003422Y007240D01*
X003438Y007289D02*
X003851Y007289D01*
X003851Y007337D02*
X003454Y007337D01*
X003471Y007386D02*
X003782Y007386D01*
X003751Y007435D02*
X003562Y007435D01*
X003578Y007483D02*
X003751Y007483D01*
X003751Y007532D02*
X003594Y007532D01*
X003533Y007580D02*
X003751Y007580D01*
X003724Y007629D02*
X003545Y007629D01*
X003551Y006852D02*
X003067Y006852D01*
X003100Y006803D02*
X003551Y006803D01*
X003551Y006755D02*
X003147Y006755D01*
X003196Y006706D02*
X003551Y006706D01*
X003573Y006658D02*
X003245Y006658D01*
X003420Y006609D02*
X003597Y006609D01*
X010326Y007168D02*
X010367Y007127D01*
X010326Y007168D02*
X010326Y007252D01*
X010367Y007293D01*
X010409Y007293D01*
X010451Y007252D01*
X010492Y007293D01*
X010534Y007293D01*
X010576Y007252D01*
X010576Y007168D01*
X010534Y007127D01*
X010451Y007210D02*
X010451Y007252D01*
X010534Y007403D02*
X010534Y007444D01*
X010576Y007444D01*
X010576Y007403D01*
X010534Y007403D01*
X010534Y007541D02*
X010576Y007583D01*
X010576Y007666D01*
X010534Y007708D01*
X010492Y007708D01*
X010451Y007666D01*
X010451Y007624D01*
X010451Y007666D02*
X010409Y007708D01*
X010367Y007708D01*
X010326Y007666D01*
X010326Y007583D01*
X010367Y007541D01*
X010326Y007817D02*
X010492Y007817D01*
X010576Y007901D01*
X010492Y007984D01*
X010326Y007984D01*
D11*
X009341Y006532D02*
X009161Y006532D01*
X009161Y006172D01*
X009341Y006172D01*
X009341Y006532D01*
X009341Y006508D02*
X009161Y006508D01*
X009161Y006410D02*
X009341Y006410D01*
X009341Y006311D02*
X009161Y006311D01*
X009161Y006213D02*
X009341Y006213D01*
X009969Y005918D02*
X009969Y000485D01*
X003433Y000485D01*
X003433Y005918D01*
X009969Y005918D01*
X007876Y006752D02*
X004226Y006752D01*
X006501Y006432D02*
X006501Y006172D01*
X002851Y002127D02*
X002851Y001927D01*
X003001Y001452D02*
X003201Y001452D01*
X002701Y001452D02*
X002501Y001452D01*
D12*
X004354Y007032D02*
X004551Y007032D01*
X004649Y007130D01*
X004900Y007130D02*
X004999Y007032D01*
X005196Y007032D01*
X005294Y007130D01*
X005545Y007130D02*
X005643Y007032D01*
X005840Y007032D01*
X005939Y007130D01*
X005939Y007228D01*
X005840Y007327D01*
X005742Y007327D01*
X005840Y007327D02*
X005939Y007425D01*
X005939Y007524D01*
X005840Y007622D01*
X005643Y007622D01*
X005545Y007524D01*
X005294Y007524D02*
X005196Y007622D01*
X004999Y007622D01*
X004900Y007524D01*
X004900Y007130D01*
X004354Y007032D02*
X004256Y007130D01*
X004256Y007524D01*
X004354Y007622D01*
X004551Y007622D01*
X004649Y007524D01*
X006189Y007524D02*
X006189Y007130D01*
X006583Y007524D01*
X006583Y007130D01*
X006485Y007032D01*
X006288Y007032D01*
X006189Y007130D01*
X006189Y007524D02*
X006288Y007622D01*
X006485Y007622D01*
X006583Y007524D01*
X006834Y007524D02*
X006932Y007622D01*
X007129Y007622D01*
X007228Y007524D01*
X006834Y007130D01*
X006932Y007032D01*
X007129Y007032D01*
X007228Y007130D01*
X007228Y007524D01*
X007478Y007524D02*
X007577Y007622D01*
X007774Y007622D01*
X007872Y007524D01*
X007478Y007130D01*
X007577Y007032D01*
X007774Y007032D01*
X007872Y007130D01*
X007872Y007524D01*
X007478Y007524D02*
X007478Y007130D01*
X006834Y007130D02*
X006834Y007524D01*
M02*
